<svg version="1.1" id="Layer_1" xmlns="http://www.w3.org/2000/svg" xmlns:xlink="http://www.w3.org/1999/xlink" x="0px" y="0px"
	 width="100%" viewBox="0 0 50 50" enable-background="new 0 0 50 50" xml:space="preserve">
<path fill="#010102" opacity="1.000000" stroke="none" 
	d="
M25.000057,51.000000 
	C16.686367,51.000000 8.872664,51.000000 1.029481,51.000000 
	C1.029481,34.394798 1.029481,17.789536 1.029481,1.092135 
	C17.563019,1.092135 34.126720,1.092135 50.845211,1.092135 
	C50.845211,17.665548 50.845211,34.332619 50.845211,51.000000 
	C42.457439,51.000000 33.978741,51.000000 25.000057,51.000000 
M35.016670,33.066650 
	C34.730984,31.673662 34.445301,30.280672 34.367641,28.263998 
	C36.549706,26.674316 40.852085,26.585361 39.167366,21.384109 
	C40.340103,20.456596 42.465179,19.588684 42.527576,18.591679 
	C42.874638,13.046292 35.725277,7.727974 30.473516,9.511333 
	C24.036869,11.697048 17.641865,14.025742 11.341699,16.571840 
	C10.358658,16.969120 9.974945,18.849394 9.011805,20.780180 
	C5.796575,25.092442 9.824003,28.074556 11.172816,31.409483 
	C12.628158,35.007805 15.945215,35.127846 19.754614,32.208691 
	C22.540991,31.801437 25.327366,31.394184 27.791458,31.661348 
	C28.535089,32.853828 29.731541,33.973866 29.936119,35.252590 
	C30.513618,38.862297 32.134262,37.917828 34.772892,36.784843 
	C37.033157,38.616978 39.360550,39.870190 42.163956,38.564472 
	C42.312111,41.178051 41.986073,44.177593 46.525227,43.578861 
	C46.525227,38.790428 46.525227,34.076527 46.525227,29.245646 
	C41.273518,28.331263 42.547260,32.288898 41.315449,34.303005 
	C39.263573,34.137402 37.211700,33.971798 35.016670,33.066650 
z"/>
<path fill="#3897C9" opacity="1.000000" stroke="none" 
	d="
M9.314094,20.043911 
	C9.974945,18.849394 10.358658,16.969120 11.341699,16.571840 
	C17.641865,14.025742 24.036869,11.697048 30.473516,9.511333 
	C35.725277,7.727974 42.874638,13.046292 42.527576,18.591679 
	C42.465179,19.588684 40.340103,20.456596 38.671734,21.857960 
	C31.899120,24.611418 25.622139,26.891024 19.032690,29.117767 
	C18.509069,29.057808 18.297918,29.050713 18.051777,28.734859 
	C17.713900,27.924135 17.411009,27.422169 17.015537,26.624352 
	C16.210491,25.777143 15.498026,25.225782 14.592956,24.660269 
	C14.400351,24.646116 14.018849,24.585741 13.828920,24.338440 
	C12.197359,22.742065 10.755726,21.392988 9.314094,20.043911 
z"/>
<path fill="#777777" opacity="1.000000" stroke="none" 
	d="
M19.345158,29.170628 
	C25.622139,26.891024 31.899120,24.611418 38.488728,22.165794 
	C40.852085,26.585361 36.549706,26.674316 33.888199,28.559566 
	C31.643753,29.565733 29.878748,30.276331 28.113743,30.986929 
	C25.327366,31.394184 22.540991,31.801437 19.406223,31.791058 
	C19.153608,30.639158 19.249384,29.904894 19.345158,29.170628 
z"/>
<path fill="#9C9B9A" opacity="1.000000" stroke="none" 
	d="
M19.032692,29.117765 
	C19.249384,29.904894 19.153608,30.639158 19.064194,31.744339 
	C15.945215,35.127846 12.628158,35.007805 11.172816,31.409483 
	C9.824003,28.074556 5.796575,25.092442 9.162949,20.412045 
	C10.755726,21.392988 12.197359,22.742065 13.577812,24.549952 
	C13.347415,25.838266 13.178198,26.667772 13.027094,27.897507 
	C14.315968,29.155457 15.586729,30.013174 17.174503,30.849447 
	C17.689934,30.233208 17.888350,29.638412 18.086765,29.043615 
	C18.297918,29.050713 18.509069,29.057808 19.032692,29.117765 
z"/>
<path fill="#3086B3" opacity="1.000000" stroke="none" 
	d="
M42.041718,34.850197 
	C42.547260,32.288898 41.273518,28.331263 46.525227,29.245646 
	C46.525227,34.076527 46.525227,38.790428 46.525227,43.578861 
	C41.986073,44.177593 42.312111,41.178051 42.157867,37.874252 
	C42.115093,36.406086 42.078403,35.628143 42.041718,34.850197 
z"/>
<path fill="#A7A7A7" opacity="1.000000" stroke="none" 
	d="
M27.952600,31.324139 
	C29.878748,30.276331 31.643753,29.565733 33.784187,28.871410 
	C34.445301,30.280672 34.730984,31.673662 35.017303,33.725258 
	C34.696766,35.090786 34.375591,35.797710 34.054413,36.504631 
	C32.134262,37.917828 30.513618,38.862297 29.936119,35.252590 
	C29.731541,33.973866 28.535089,32.853828 27.952600,31.324139 
z"/>
<path fill="#71706F" opacity="1.000000" stroke="none" 
	d="
M34.413654,36.644737 
	C34.375591,35.797710 34.696766,35.090786 35.088882,34.095028 
	C37.211700,33.971798 39.263573,34.137402 41.678581,34.576599 
	C42.078403,35.628143 42.115093,36.406086 42.122177,37.408775 
	C39.360550,39.870190 37.033157,38.616978 34.413654,36.644737 
z"/>
<path fill="#0A2E45" opacity="1.000000" stroke="none" 
	d="
M14.785561,24.674421 
	C15.498026,25.225782 16.210491,25.777143 17.002241,26.643322 
	C17.081526,26.958141 17.039957,26.955038 16.792952,27.062960 
	C16.198734,27.253780 15.851521,27.336681 15.378010,26.963419 
	C15.096328,25.896313 14.940945,25.285366 14.785561,24.674421 
z"/>
<path fill="#343637" opacity="1.000000" stroke="none" 
	d="
M14.592957,24.660269 
	C14.940945,25.285366 15.096328,25.896313 15.093534,27.136314 
	C14.293231,27.676006 13.651106,27.586641 13.008981,27.497276 
	C13.178198,26.667772 13.347415,25.838266 13.767741,24.797253 
	C14.018849,24.585741 14.400351,24.646116 14.592957,24.660269 
z"/>
<path fill="#122A38" opacity="1.000000" stroke="none" 
	d="
M18.051777,28.734859 
	C17.888350,29.638412 17.689934,30.233208 17.227863,30.460594 
	C16.989458,29.047136 17.014708,28.001087 17.039955,26.955038 
	C17.039957,26.955038 17.081526,26.958141 17.094822,26.939171 
	C17.411009,27.422169 17.713900,27.924135 18.051777,28.734859 
z"/>
<path fill="#176B9C" opacity="1.000000" stroke="none" 
	d="
M16.792950,27.062960 
	C17.014708,28.001087 16.989458,29.047136 16.910851,30.482038 
	C15.586729,30.013174 14.315968,29.155457 13.027094,27.897507 
	C13.651106,27.586641 14.293231,27.676006 15.219833,27.592476 
	C15.851521,27.336681 16.198734,27.253780 16.792950,27.062960 
z"/>
</svg>