<svg version="1.1" id="Layer_1" xmlns="http://www.w3.org/2000/svg" xmlns:xlink="http://www.w3.org/1999/xlink" x="0px" y="0px"
	 width="100%" viewBox="0 0 50 50" enable-background="new 0 0 50 50" xml:space="preserve">
<path fill="#000000" opacity="1.000000" stroke="none" 
	d="
M1.000000,12.000000 
	C1.000000,8.437218 1.000000,4.874434 1.000000,1.000000 
	C2.996319,1.000000 5.000255,1.000000 7.602939,1.393612 
	C10.467792,1.524815 12.733896,1.262408 15.000000,1.000000 
	C17.370558,1.000000 19.741116,1.000000 22.575066,1.291066 
	C23.081045,1.771878 23.123632,1.961624 23.088684,2.442539 
	C22.651703,3.439893 22.292259,4.146079 21.614441,5.078034 
	C21.160238,6.856146 21.024414,8.408487 20.507576,9.978836 
	C18.894512,9.935921 17.662460,9.874998 16.637249,9.824302 
	C16.700184,8.422049 16.754877,7.203395 16.834053,5.733912 
	C16.594847,5.290239 16.331158,5.097396 16.047974,4.925270 
	C16.028482,4.945986 16.072481,4.892355 15.883554,4.573649 
	C12.630613,2.636953 9.651999,2.150362 6.961530,4.949214 
	C7.004100,4.981101 6.922522,4.907430 6.654772,4.952543 
	C6.064956,5.177818 5.742891,5.357980 5.420826,5.538142 
	C5.601014,5.737308 5.781200,5.936473 5.963794,6.448815 
	C6.234029,7.476060 6.501857,8.190128 6.835352,9.164354 
	C6.896965,9.603343 6.892910,9.782176 6.535058,10.140343 
	C5.121747,11.587526 3.177312,12.833382 3.145167,14.126764 
	C2.923039,23.064138 3.099487,32.011421 3.200530,41.296242 
	C4.425048,42.444759 5.596909,43.252560 6.481899,44.218716 
	C6.184205,45.244553 6.173380,46.112030 6.109943,47.331833 
	C6.371554,48.789436 6.685777,49.894718 7.000000,51.000000 
	C5.061049,51.000000 3.122098,51.000000 1.000000,51.000000 
	C1.000000,47.992336 1.000000,44.982731 1.337305,41.222107 
	C1.785951,33.347107 1.988503,26.222725 1.957219,19.099371 
	C1.946821,16.731558 1.336211,14.366382 1.000000,12.000000 
z"/>
<path fill="#0887B3" opacity="1.000000" stroke="none" 
	d="
M16.809570,5.984742 
	C16.754877,7.203395 16.700184,8.422049 16.637249,9.824302 
	C17.662460,9.874998 18.894512,9.935921 20.881668,9.985463 
	C22.380510,9.958996 23.124245,9.943909 24.055937,10.138630 
	C24.494438,10.848616 24.744986,11.348793 24.575565,11.927891 
	C22.586342,12.103343 21.017086,12.199875 19.186283,12.312495 
	C19.186283,14.438017 19.186283,16.194525 19.106462,18.413826 
	C19.108934,23.272497 19.191227,27.668377 19.243740,32.386642 
	C19.251013,33.138008 19.288063,33.566986 19.224602,34.393257 
	C19.438660,36.758457 19.753229,38.726364 20.496407,40.769508 
	C22.953085,40.951935 24.981152,41.059124 27.103970,41.368134 
	C27.798622,41.403996 28.398525,41.238033 29.329796,40.996971 
	C30.107697,40.976711 30.554224,41.031548 31.074739,41.402954 
	C31.455214,42.529537 31.761702,43.339561 32.056694,44.535378 
	C32.093342,45.951988 32.141476,46.982807 32.019901,48.348038 
	C31.566795,49.454967 31.283398,50.227486 31.000000,51.000000 
	C27.969406,51.000000 24.938814,51.000000 21.596045,50.711395 
	C21.163261,48.035240 21.042654,45.647690 20.914726,43.115246 
	C18.972420,43.115246 17.515203,43.115246 16.035538,42.789040 
	C16.005661,42.026531 15.998231,41.590225 16.305510,40.995255 
	C17.267181,31.372829 17.914145,21.909069 18.572941,12.272215 
	C14.916493,12.098174 12.457239,11.981117 9.998559,11.554113 
	C9.998913,10.830902 9.998694,10.417637 10.136658,9.825043 
	C10.468492,9.413202 10.680326,9.198642 11.226452,8.940558 
	C12.068209,7.960999 12.593854,7.042912 13.330450,6.009048 
	C13.855663,5.692836 13.965034,5.412496 14.237071,5.028373 
	C15.093914,4.967114 15.583198,4.929735 16.072481,4.892355 
	C16.072481,4.892355 16.028482,4.945986 16.156509,5.115361 
	C16.440229,5.532561 16.615240,5.765896 16.809570,5.984742 
M24.903526,44.513565 
	C24.935413,44.693439 24.967300,44.873310 25.121784,45.586040 
	C25.751324,45.768486 26.380863,45.950935 27.010406,46.133381 
	C26.942423,45.474632 26.874441,44.815884 26.193874,44.024391 
	C25.792782,43.909317 25.391687,43.794243 24.658133,43.297985 
	C24.015610,43.136810 23.373089,42.975639 22.730566,42.814465 
	C22.676649,43.085819 22.622732,43.357170 22.568813,43.628525 
	C23.287388,43.750889 24.005960,43.873257 24.903526,44.513565 
z"/>
<path fill="#000000" opacity="1.000000" stroke="none" 
	d="
M43.000000,1.000000 
	C45.603985,1.000000 48.207973,1.000000 51.000000,1.000000 
	C51.000000,4.679317 51.000000,8.360483 50.628441,12.745087 
	C50.170204,19.827200 49.983047,26.206886 50.047371,32.584038 
	C50.072338,35.058979 50.665611,37.528183 51.000000,40.000000 
	C51.000000,43.569656 51.000000,47.139309 51.000000,51.000000 
	C48.667171,51.000000 46.328320,51.000000 43.206554,50.796867 
	C42.556538,50.399868 42.689438,50.205997 43.153389,50.304882 
	C43.930244,49.402721 44.376053,48.207802 44.885406,46.632008 
	C44.987804,45.227634 45.026661,44.204136 45.390564,43.134201 
	C46.758709,42.085556 47.801807,41.083351 48.914284,39.608364 
	C48.933262,30.440857 48.882858,21.746132 48.823082,12.742005 
	C47.909763,11.608728 47.005817,10.784854 46.055122,9.563037 
	C45.945885,8.098991 45.883389,7.032888 45.743176,5.611168 
	C42.785973,4.150244 39.906487,3.044936 37.006889,1.966141 
	C36.986774,1.992653 36.946354,2.045534 37.355316,1.996524 
	C39.509518,1.631676 41.254761,1.315838 43.000000,1.000000 
z"/>
<path fill="#148BB5" opacity="1.000000" stroke="none" 
	d="
M7.437469,51.000000 
	C6.685777,49.894718 6.371554,48.789436 6.344676,47.119518 
	C6.677603,45.723373 6.723186,44.891865 6.768769,44.060356 
	C5.596909,43.252560 4.425048,42.444759 3.452745,41.228935 
	C4.099988,40.558525 4.547673,40.296139 5.319735,40.232147 
	C7.758683,40.946182 9.873253,41.461830 11.614094,42.009647 
	C10.495625,42.697529 9.750884,43.353241 9.104273,44.127129 
	C9.202404,44.245304 9.627743,44.362064 9.627743,44.362064 
	C9.627743,44.362064 10.038042,44.178818 10.012399,44.134369 
	C9.986755,44.089924 10.075707,44.038738 10.364028,44.131241 
	C11.417805,44.481369 12.183262,44.738991 13.045207,45.260887 
	C13.661838,46.294685 14.181979,47.064209 14.988409,47.861855 
	C15.465290,47.911251 15.655883,47.932529 15.772604,48.325848 
	C15.132488,49.465256 14.566243,50.232628 13.999999,51.000000 
	C11.958313,51.000000 9.916626,51.000000 7.437469,51.000000 
M9.210230,46.626621 
	C9.197664,46.910015 9.185100,47.193413 9.172534,47.476807 
	C9.450029,47.354698 9.727525,47.232590 10.005021,47.110481 
	C9.841008,46.899689 9.676994,46.688896 9.210230,46.626621 
z"/>
<path fill="#000000" opacity="1.000000" stroke="none" 
	d="
M14.249999,51.000000 
	C14.566243,50.232628 15.132488,49.465256 15.834002,48.002655 
	C16.241369,46.523819 16.513470,45.740223 17.125465,45.052666 
	C18.063251,46.174427 18.661144,47.200146 19.601711,48.813744 
	C20.362783,45.516136 20.360409,43.545189 16.645662,43.944130 
	C16.155153,43.687126 16.019047,43.451813 16.057985,43.115246 
	C17.515203,43.115246 18.972420,43.115246 20.914726,43.115246 
	C21.042654,45.647690 21.163261,48.035240 21.141933,50.711395 
	C19.611111,51.000000 18.222221,51.000000 16.377285,50.738724 
	C15.614158,50.651634 15.307079,50.825817 15.000000,51.000000 
	C15.000000,51.000000 14.500000,51.000000 14.249999,51.000000 
z"/>
<path fill="#028FB3" opacity="1.000000" stroke="none" 
	d="
M1.000000,12.468657 
	C1.336211,14.366382 1.946821,16.731558 1.957219,19.099371 
	C1.988503,26.222725 1.785951,33.347107 1.337305,40.735542 
	C1.000000,31.645771 1.000000,22.291542 1.000000,12.468657 
z"/>
<path fill="#3497CB" opacity="1.000000" stroke="none" 
	d="
M51.000000,39.531345 
	C50.665611,37.528183 50.072338,35.058979 50.047371,32.584038 
	C49.983047,26.206886 50.170204,19.827200 50.628441,13.224262 
	C51.000000,21.687563 51.000000,30.375128 51.000000,39.531345 
z"/>
<path fill="#000000" opacity="1.000000" stroke="none" 
	d="
M29.000000,1.000000 
	C31.370558,1.000000 33.741116,1.000000 36.603737,1.264530 
	C37.045990,1.701218 36.996174,1.873376 36.946354,2.045534 
	C36.946354,2.045534 36.986774,1.992653 36.695274,2.067459 
	C35.563568,3.120586 34.723362,4.098907 33.591583,5.070723 
	C32.913715,5.021820 32.527420,4.979423 32.007080,4.646659 
	C30.911026,3.550889 29.949017,2.745486 28.945892,1.704449 
	C28.904779,1.468815 29.000000,1.000000 29.000000,1.000000 
z"/>
<path fill="#000000" opacity="1.000000" stroke="none" 
	d="
M31.428463,51.000000 
	C31.283398,50.227486 31.566795,49.454967 32.182907,48.337872 
	C32.515617,47.993290 32.832157,47.898918 33.123596,48.014431 
	C34.542656,48.423862 35.670280,48.717781 36.852173,49.340660 
	C36.937626,50.113079 36.968811,50.556541 37.000000,51.000000 
	C35.285641,51.000000 33.571281,51.000000 31.428463,51.000000 
z"/>
<path fill="#3491B9" opacity="1.000000" stroke="none" 
	d="
M37.428463,51.000000 
	C36.968811,50.556541 36.937626,50.113079 37.270035,49.329010 
	C39.363205,49.329643 41.092773,49.670883 42.822342,50.012123 
	C42.689438,50.205997 42.556538,50.399868 42.711823,50.796867 
	C41.285641,51.000000 39.571285,51.000000 37.428463,51.000000 
z"/>
<path fill="#2D89C4" opacity="1.000000" stroke="none" 
	d="
M28.571280,1.000000 
	C29.000000,1.000000 28.904779,1.468815 28.792419,1.916397 
	C26.842113,2.293109 25.004168,2.222240 23.166220,2.151370 
	C23.123632,1.961624 23.081045,1.771878 23.019230,1.291066 
	C24.714186,1.000000 26.428373,1.000000 28.571280,1.000000 
z"/>
<path fill="#3399B8" opacity="1.000000" stroke="none" 
	d="
M14.562501,1.000000 
	C12.733896,1.262408 10.467792,1.524815 8.100843,1.393612 
	C10.041667,1.000000 12.083335,1.000000 14.562501,1.000000 
z"/>
<path fill="#2D91BD" opacity="1.000000" stroke="none" 
	d="
M37.355316,1.996524 
	C36.996174,1.873376 37.045990,1.701218 37.047901,1.264530 
	C38.714359,1.000000 40.428715,1.000000 42.571537,1.000000 
	C41.254761,1.315838 39.509518,1.631676 37.355316,1.996524 
z"/>
<path fill="#148BB5" opacity="1.000000" stroke="none" 
	d="
M15.250000,51.000000 
	C15.307079,50.825817 15.614158,50.651634 15.960618,50.738724 
	C16.000000,51.000000 15.500000,51.000000 15.250000,51.000000 
z"/>
<path fill="#0D89B4" opacity="1.000000" stroke="none" 
	d="
M23.088684,2.442539 
	C25.004168,2.222240 26.842113,2.293109 28.833534,2.152031 
	C29.949017,2.745486 30.911026,3.550889 31.978786,5.019560 
	C32.332993,7.625045 30.717632,10.774522 34.728386,10.863927 
	C34.378307,8.467171 34.130730,6.772200 33.883156,5.077229 
	C34.723362,4.098907 35.563568,3.120586 36.715389,2.040947 
	C39.906487,3.044936 42.785973,4.150244 45.383354,5.707139 
	C43.643829,6.485871 42.186401,6.813015 40.505093,7.311508 
	C39.835190,7.835994 39.389164,8.189131 38.776314,8.532383 
	C38.266968,9.262225 37.924450,10.001951 37.408009,11.117291 
	C38.982517,11.003582 39.961494,10.932881 40.960461,11.110436 
	C40.980453,11.358692 41.010094,11.855929 40.586365,11.934978 
	C38.163525,12.077556 36.164413,12.141084 33.785164,12.189529 
	C32.898346,12.168219 32.391663,12.161990 31.456158,12.112843 
	C29.016735,11.996272 27.006134,11.922621 24.995531,11.848970 
	C24.744986,11.348793 24.494438,10.848616 23.952751,9.819569 
	C23.085344,7.811222 22.509081,6.331742 21.932817,4.852264 
	C22.292259,4.146079 22.651703,3.439893 23.088684,2.442539 
z"/>
<path fill="#0585B1" opacity="1.000000" stroke="none" 
	d="
M4.995358,40.033756 
	C4.547673,40.296139 4.099988,40.558525 3.400088,40.888214 
	C3.099487,32.011421 2.923039,23.064138 3.145167,14.126764 
	C3.177312,12.833382 5.121747,11.587526 6.923769,10.148457 
	C8.443677,9.986282 9.221076,9.995327 9.998475,10.004373 
	C9.998694,10.417637 9.998913,10.830902 9.577124,11.623516 
	C6.006530,11.663924 4.675046,12.944359 4.761023,16.230957 
	C4.968493,24.161840 4.932925,32.099079 4.995358,40.033756 
z"/>
<path fill="#0081AF" opacity="1.000000" stroke="none" 
	d="
M10.136658,9.825043 
	C9.221076,9.995327 8.443677,9.986282 7.277566,9.969123 
	C6.892910,9.782176 6.896965,9.603343 6.899738,8.812607 
	C6.924674,7.489557 6.950890,6.778411 6.966743,5.777152 
	C6.945094,5.293836 6.933808,5.100633 6.922522,4.907430 
	C6.922522,4.907430 7.004100,4.981101 7.325642,4.973566 
	C8.133455,4.990139 8.619726,5.014248 9.106075,5.286594 
	C9.283640,5.835660 9.539865,6.035593 10.018306,6.413643 
	C10.411304,7.462447 10.660822,8.232239 10.910340,9.002031 
	C10.680326,9.198642 10.468492,9.413202 10.136658,9.825043 
z"/>
<path fill="#0087B2" opacity="1.000000" stroke="none" 
	d="
M9.105998,5.038357 
	C8.619726,5.014248 8.133455,4.990139 7.283072,4.941679 
	C9.651999,2.150362 12.630613,2.636953 15.883554,4.573649 
	C15.583198,4.929735 15.093914,4.967114 13.842150,5.005759 
	C11.755112,5.017468 10.430554,5.027912 9.105998,5.038357 
z"/>
<path fill="#007EAD" opacity="1.000000" stroke="none" 
	d="
M21.614441,5.078034 
	C22.509081,6.331742 23.085344,7.811222 23.764793,9.609761 
	C23.124245,9.943909 22.380510,9.958996 21.262682,9.967455 
	C21.024414,8.408487 21.160238,6.856146 21.614441,5.078034 
z"/>
<path fill="#93BEDC" opacity="1.000000" stroke="none" 
	d="
M6.977107,6.067265 
	C6.950890,6.778411 6.924674,7.489557 6.834071,8.552450 
	C6.501857,8.190128 6.234029,7.476060 6.215475,6.398168 
	C6.635535,6.045317 6.806321,6.056291 6.977107,6.067265 
z"/>
<path fill="#7BB3CE" opacity="1.000000" stroke="none" 
	d="
M6.481899,44.218716 
	C6.723186,44.891865 6.677603,45.723373 6.397288,46.767197 
	C6.173380,46.112030 6.184205,45.244553 6.481899,44.218716 
z"/>
<path fill="#0087B2" opacity="1.000000" stroke="none" 
	d="
M6.966743,5.777152 
	C6.806321,6.056291 6.635535,6.045317 6.213068,6.084991 
	C5.781200,5.936473 5.601014,5.737308 5.420826,5.538142 
	C5.742891,5.357980 6.064956,5.177818 6.654772,4.952543 
	C6.933808,5.100633 6.945094,5.293836 6.966743,5.777152 
z"/>
<path fill="#0087B2" opacity="1.000000" stroke="none" 
	d="
M16.834053,5.733912 
	C16.615240,5.765896 16.440229,5.532561 16.176003,5.094645 
	C16.331158,5.097396 16.594847,5.290239 16.834053,5.733912 
z"/>
<path fill="#D2EDF7" opacity="1.000000" stroke="none" 
	d="
M5.319735,40.232147 
	C4.932925,32.099079 4.968493,24.161840 4.761023,16.230957 
	C4.675046,12.944359 6.006530,11.663924 9.576550,11.933464 
	C12.457239,11.981117 14.916493,12.098174 18.572941,12.272215 
	C17.914145,21.909069 17.267181,31.372829 15.970852,40.930595 
	C14.608470,41.333572 13.895452,41.642551 12.883644,41.954353 
	C12.385843,41.963943 12.186832,41.970711 11.987823,41.977478 
	C9.873253,41.461830 7.758683,40.946182 5.319735,40.232147 
M7.384921,30.152782 
	C7.585858,31.466009 7.786796,32.779236 8.131977,34.532207 
	C8.306499,34.804424 8.548461,34.987518 8.972514,35.787083 
	C9.021353,36.496803 9.070191,37.206520 9.392259,38.586685 
	C10.881242,38.363598 12.370225,38.140514 13.989529,37.217922 
	C14.035530,36.508831 14.081532,35.799740 14.575324,34.748875 
	C14.377920,34.138504 14.180516,33.528137 13.999048,32.309563 
	C14.004433,31.904026 14.009817,31.498491 14.136249,30.556061 
	C14.111663,30.374266 14.087077,30.192472 14.145585,29.112585 
	C14.072001,26.126411 13.998417,23.140240 13.747100,19.409445 
	C13.673919,19.165308 13.600738,18.921171 13.971721,18.185598 
	C14.615183,17.798397 15.258645,17.411196 16.101795,16.172110 
	C15.509990,15.477472 14.966340,14.242652 14.317765,14.184834 
	C11.934605,13.972384 9.516619,14.150593 6.654607,14.470268 
	C6.628687,15.303978 6.602768,16.137688 6.880964,17.630548 
	C7.747783,17.985823 8.614601,18.341097 9.233528,19.410654 
	C9.174484,19.656429 9.115440,19.902206 8.957043,21.022934 
	C8.862117,23.673931 8.767192,26.324926 8.359172,29.125284 
	C8.166626,29.268791 8.035815,29.455538 7.384921,30.152782 
z"/>
<path fill="#D5EBF5" opacity="1.000000" stroke="none" 
	d="
M24.575565,11.927891 
	C27.006134,11.922621 29.016735,11.996272 31.543629,12.564420 
	C32.000690,22.297905 31.941460,31.536894 31.659695,40.847366 
	C31.437162,40.918854 31.000753,41.086388 31.000753,41.086388 
	C30.554224,41.031548 30.107697,40.976711 28.997057,40.925529 
	C27.891705,41.008232 27.450462,41.087273 27.009220,41.166313 
	C24.981152,41.059124 22.953085,40.951935 20.502388,40.384281 
	C19.828209,37.947868 19.576660,35.971920 19.325111,33.995968 
	C19.288063,33.566986 19.251013,33.138008 19.467840,32.376518 
	C19.721718,32.044014 20.167236,31.990950 20.415562,31.919220 
	C21.102772,31.578959 21.541655,31.310425 22.236158,31.139622 
	C22.672792,31.260153 22.853807,31.282953 23.034225,31.610168 
	C23.033148,32.320450 23.032663,32.726311 23.009172,33.467674 
	C23.577749,34.288567 24.169331,34.773952 24.908718,35.504906 
	C25.645712,36.193989 26.234901,36.637505 27.002735,37.339539 
	C27.788013,36.419514 28.394646,35.240959 29.307339,33.954880 
	C29.389622,32.889809 29.165848,31.932268 28.981510,30.972744 
	C29.020945,30.970758 29.033409,31.048740 29.007584,30.733953 
	C28.698883,29.863993 28.416006,29.308819 28.185478,28.315868 
	C28.237827,25.417210 28.237827,22.956326 28.237827,20.011976 
	C26.599613,20.011976 25.329832,20.011976 23.798794,19.977676 
	C23.364481,19.973528 23.191423,20.003679 22.836872,19.781012 
	C21.783901,19.019480 20.912422,18.510767 19.827240,17.989937 
	C19.613537,17.977818 19.186283,17.951033 19.186283,17.951033 
	C19.186283,16.194525 19.186283,14.438017 19.186283,12.312495 
	C21.017086,12.199875 22.586342,12.103343 24.575565,11.927891 
M23.665239,16.482594 
	C25.097950,16.347795 26.530661,16.212996 28.309130,15.890166 
	C28.368395,15.765905 28.501413,15.615172 28.468668,15.523936 
	C28.425598,15.403941 28.235157,15.234506 28.137238,15.251762 
	C26.454582,15.548279 24.776423,15.870321 23.665239,16.482594 
z"/>
<path fill="#0488B3" opacity="1.000000" stroke="none" 
	d="
M31.074739,41.402954 
	C31.000753,41.086388 31.437162,40.918854 32.034649,40.866676 
	C33.133404,40.794094 33.634674,40.773685 34.568916,40.819729 
	C37.342609,40.964161 39.683334,41.042141 42.018845,41.300079 
	C42.013634,41.480038 42.002453,41.839928 41.758884,41.925209 
	C41.049042,42.117191 40.582767,42.223896 40.102242,42.333862 
	C40.765797,42.902550 41.385738,43.433853 41.991608,44.238358 
	C42.647594,45.340897 43.317650,46.170231 44.196259,47.001896 
	C44.404812,47.004223 44.821861,47.012882 44.821861,47.012882 
	C44.376053,48.207802 43.930244,49.402721 43.153389,50.304882 
	C41.092773,49.670883 39.363205,49.329643 37.215771,49.000046 
	C35.670280,48.717781 34.542656,48.423862 33.287300,47.744816 
	C32.795773,46.289654 32.431980,45.219616 32.068188,44.149582 
	C31.761702,43.339561 31.455214,42.529537 31.074739,41.402954 
z"/>
<path fill="#B4D5E6" opacity="1.000000" stroke="none" 
	d="
M19.106462,18.413826 
	C19.186283,17.951033 19.613537,17.977818 19.797859,18.453594 
	C20.043865,23.283232 20.105551,27.637091 20.167236,31.990950 
	C20.167236,31.990950 19.721718,32.044014 19.497620,32.054134 
	C19.191227,27.668377 19.108934,23.272497 19.106462,18.413826 
z"/>
<path fill="#0081AF" opacity="1.000000" stroke="none" 
	d="
M13.182436,41.951530 
	C13.895452,41.642551 14.608470,41.333572 15.656143,41.089260 
	C15.998231,41.590225 16.005661,42.026531 16.035538,42.789040 
	C16.019047,43.451813 16.155153,43.687126 16.643276,44.167015 
	C16.820246,44.512848 16.785572,44.956623 16.785572,44.956623 
	C16.513470,45.740223 16.241369,46.523819 15.907871,47.630615 
	C15.655883,47.932529 15.465290,47.911251 15.072660,47.479271 
	C14.574320,45.415058 14.278014,43.761547 13.788319,42.036079 
	C13.594929,41.964123 13.182436,41.951530 13.182436,41.951530 
z"/>
<path fill="#B4D5E6" opacity="1.000000" stroke="none" 
	d="
M19.224602,34.393257 
	C19.576660,35.971920 19.828209,37.947868 20.073776,40.309048 
	C19.753229,38.726364 19.438660,36.758457 19.224602,34.393257 
z"/>
<path fill="#268FB1" opacity="1.000000" stroke="none" 
	d="
M32.056694,44.535378 
	C32.431980,45.219616 32.795773,46.289654 32.995865,47.629303 
	C32.832157,47.898918 32.515617,47.993290 32.352615,48.003456 
	C32.141476,46.982807 32.093342,45.951988 32.056694,44.535378 
z"/>
<path fill="#4097BB" opacity="1.000000" stroke="none" 
	d="
M26.806458,44.157135 
	C26.874441,44.815884 26.942423,45.474632 27.010406,46.133385 
	C26.380863,45.950935 25.751324,45.768486 25.327888,45.328400 
	C25.958149,44.766220 26.382303,44.461678 26.806458,44.157135 
z"/>
<path fill="#CFE4F0" opacity="1.000000" stroke="none" 
	d="
M9.106075,5.286594 
	C10.430554,5.027912 11.755112,5.017468 13.474590,5.029638 
	C13.965034,5.412496 13.855663,5.692836 12.923950,5.975175 
	C11.495941,6.082930 10.685383,6.108780 9.874825,6.134631 
	C9.539865,6.035593 9.283640,5.835660 9.106075,5.286594 
z"/>
<path fill="#7BB3CE" opacity="1.000000" stroke="none" 
	d="
M10.018306,6.413643 
	C10.685383,6.108780 11.495941,6.082930 12.712999,6.090951 
	C12.593854,7.042912 12.068209,7.960999 11.226452,8.940558 
	C10.660822,8.232239 10.411304,7.462447 10.018306,6.413643 
z"/>
<path fill="#2D91BD" opacity="1.000000" stroke="none" 
	d="
M24.724533,43.995625 
	C24.005960,43.873257 23.287388,43.750889 22.568813,43.628525 
	C22.622732,43.357170 22.676649,43.085819 22.730566,42.814465 
	C23.373089,42.975639 24.015610,43.136810 24.792332,43.598328 
	C24.926529,43.898666 24.724533,43.995625 24.724533,43.995625 
z"/>
<path fill="#0488B3" opacity="1.000000" stroke="none" 
	d="
M27.103970,41.368134 
	C27.450462,41.087273 27.891705,41.008232 28.665688,41.000633 
	C28.398525,41.238033 27.798622,41.403996 27.103970,41.368134 
z"/>
<path fill="#7BC3DE" opacity="1.000000" stroke="none" 
	d="
M26.500166,44.090763 
	C26.382303,44.461678 25.958149,44.766220 25.266590,45.061974 
	C24.967300,44.873310 24.935413,44.693439 24.814030,44.254593 
	C24.724533,43.995625 24.926529,43.898666 24.958561,43.788918 
	C25.391687,43.794243 25.792782,43.909317 26.500166,44.090763 
z"/>
<path fill="#0187B3" opacity="1.000000" stroke="none" 
	d="
M42.002453,41.839928 
	C42.002453,41.839928 42.013634,41.480038 42.255417,41.219414 
	C43.327267,40.886131 44.157333,40.813480 45.242390,40.765099 
	C45.723553,40.552349 45.949722,40.315323 46.398079,39.882744 
	C46.656368,39.111759 46.692467,38.536324 46.807190,37.568554 
	C46.846077,36.114059 46.806343,35.051899 46.847389,33.618378 
	C46.874962,32.492874 46.821754,31.738737 46.836086,30.527645 
	C46.872864,26.059198 46.842098,22.047705 46.899315,17.648994 
	C46.687565,15.790751 46.387836,14.319723 45.824703,12.575867 
	C44.044231,12.154001 42.527161,12.004965 41.010094,11.855929 
	C41.010094,11.855929 40.980453,11.358692 40.983017,10.889233 
	C40.985577,10.419773 41.089493,9.987300 41.337700,9.991080 
	C41.585903,9.994861 42.082912,9.973282 42.484756,9.980186 
	C43.958355,9.978386 45.030113,9.969682 46.101868,9.960979 
	C47.005817,10.784854 47.909763,11.608728 48.643143,13.107349 
	C48.596684,22.548445 48.720795,31.314796 48.844906,40.081146 
	C47.801807,41.083351 46.758709,42.085556 45.153091,43.079353 
	C44.590572,43.070946 44.107468,42.991646 43.952950,42.793571 
	C43.505352,42.460625 43.212276,42.325752 42.692734,42.096031 
	C42.466270,42.001179 42.002453,41.839928 42.002453,41.839928 
z"/>
<path fill="#2D8EB8" opacity="1.000000" stroke="none" 
	d="
M48.914284,39.608364 
	C48.720795,31.314796 48.596684,22.548445 48.652515,13.416751 
	C48.882858,21.746132 48.933262,30.440857 48.914284,39.608364 
z"/>
<path fill="#007EAD" opacity="1.000000" stroke="none" 
	d="
M46.055122,9.563037 
	C45.030113,9.969682 43.958355,9.978386 42.367897,9.818806 
	C41.689919,9.436311 41.495922,9.260402 41.175495,8.792892 
	C40.965511,8.022045 40.847244,7.581101 40.728973,7.140159 
	C42.186401,6.813015 43.643829,6.485871 45.461075,6.062756 
	C45.883389,7.032888 45.945885,8.098991 46.055122,9.563037 
z"/>
<path fill="#007EAD" opacity="1.000000" stroke="none" 
	d="
M44.107468,42.991646 
	C44.107468,42.991646 44.590572,43.070946 44.828045,43.125793 
	C45.026661,44.204136 44.987804,45.227634 44.885406,46.632008 
	C44.821861,47.012882 44.404812,47.004223 44.184002,46.600845 
	C44.011284,45.128864 44.059376,44.060253 44.107468,42.991646 
z"/>
<path fill="#A5CBE0" opacity="1.000000" stroke="none" 
	d="
M13.981709,42.108032 
	C14.278014,43.761547 14.574320,45.415058 14.786373,47.451153 
	C14.181979,47.064209 13.661838,46.294685 13.117425,45.008049 
	C13.108808,44.316311 13.124459,44.141693 13.327757,43.781811 
	C13.670836,43.100372 13.826272,42.604202 13.981709,42.108032 
z"/>
<path fill="#C2DAE8" opacity="1.000000" stroke="none" 
	d="
M13.788319,42.036079 
	C13.826272,42.604202 13.670836,43.100372 13.128191,43.501320 
	C11.852556,43.616974 10.964131,43.827858 10.075707,44.038738 
	C10.075707,44.038738 9.986755,44.089924 9.741632,44.170334 
	C9.333054,44.170147 9.169599,44.089550 9.006143,44.008953 
	C9.750884,43.353241 10.495625,42.697529 11.614094,42.009651 
	C12.186832,41.970711 12.385843,41.963943 12.883644,41.954353 
	C13.182436,41.951530 13.594929,41.964123 13.788319,42.036079 
z"/>
<path fill="#2393BB" opacity="1.000000" stroke="none" 
	d="
M10.364028,44.131241 
	C10.964131,43.827858 11.852556,43.616974 12.940546,43.686584 
	C13.124459,44.141693 13.108808,44.316311 13.020937,44.743774 
	C12.183262,44.738991 11.417805,44.481369 10.364028,44.131241 
z"/>
<path fill="#2393BB" opacity="1.000000" stroke="none" 
	d="
M9.361606,46.552364 
	C9.676994,46.688896 9.841008,46.899689 10.005020,47.110481 
	C9.727525,47.232590 9.450029,47.354698 9.172534,47.476807 
	C9.185100,47.193413 9.197664,46.910015 9.361606,46.552364 
z"/>
<path fill="#2393BB" opacity="1.000000" stroke="none" 
	d="
M9.104273,44.127129 
	C9.169599,44.089550 9.333054,44.170147 9.767275,44.214779 
	C10.038042,44.178818 9.627743,44.362064 9.627743,44.362064 
	C9.627743,44.362064 9.202404,44.245304 9.104273,44.127129 
z"/>
<path fill="#077DB1" opacity="1.000000" stroke="none" 
	d="
M17.125465,45.052666 
	C16.785572,44.956623 16.820246,44.512848 16.822632,44.289963 
	C20.360409,43.545189 20.362783,45.516136 19.601711,48.813744 
	C18.661144,47.200146 18.063251,46.174427 17.125465,45.052666 
z"/>
<path fill="#2190A8" opacity="1.000000" stroke="none" 
	d="
M33.591583,5.070723 
	C34.130730,6.772200 34.378307,8.467171 34.728386,10.863927 
	C30.717632,10.774522 32.332993,7.625045 32.112831,5.309927 
	C32.527420,4.979423 32.913715,5.021820 33.591583,5.070723 
z"/>
<path fill="#E2F0F7" opacity="1.000000" stroke="none" 
	d="
M40.586365,11.934978 
	C42.527161,12.004965 44.044231,12.154001 45.638153,12.802196 
	C45.426472,13.564205 45.137932,13.827057 44.574768,14.194895 
	C44.157166,14.865643 44.014179,15.431404 43.709351,16.113869 
	C43.339417,16.398584 43.153400,16.588251 42.581238,16.861809 
	C40.355179,16.924047 38.537350,16.924047 36.719517,16.924047 
	C36.722294,17.241661 36.725067,17.559277 36.727840,17.876890 
	C37.468479,17.991663 38.209118,18.106438 38.926605,18.367229 
	C38.903458,18.513247 38.894947,18.808832 38.863789,19.035553 
	C38.832630,19.262274 38.908466,19.713652 38.545227,19.952072 
	C38.094700,23.086649 38.007412,25.982807 37.689186,29.180393 
	C37.283897,30.207121 37.109543,30.932417 36.979168,31.726810 
	C37.023148,31.795906 36.969433,32.081436 36.967766,32.508801 
	C37.231277,33.693497 37.496452,34.450832 37.796974,35.560669 
	C37.779457,36.617771 37.726597,37.322372 37.326962,38.012150 
	C36.055233,37.974487 35.130276,37.951645 34.141655,37.468407 
	C34.107094,28.740210 34.136196,20.472410 34.165298,12.204613 
	C36.164413,12.141084 38.163525,12.077556 40.586365,11.934978 
z"/>
<path fill="#78AECA" opacity="1.000000" stroke="none" 
	d="
M33.785164,12.189529 
	C34.136196,20.472410 34.107094,28.740210 34.101082,37.820381 
	C34.128098,39.339600 34.132019,40.046436 34.135941,40.753277 
	C33.634674,40.773685 33.133404,40.794094 32.257183,40.795189 
	C31.941460,31.536894 32.000690,22.297905 31.972450,12.607340 
	C32.391663,12.161990 32.898346,12.168219 33.785164,12.189529 
z"/>
<path fill="#85BED6" opacity="1.000000" stroke="none" 
	d="
M41.089493,9.987300 
	C41.089493,9.987300 40.985577,10.419773 40.963020,10.640977 
	C39.961494,10.932881 38.982517,11.003582 37.408009,11.117291 
	C37.924450,10.001951 38.266968,9.262225 38.781605,8.508753 
	C38.953724,8.495007 38.959469,8.451374 39.109859,8.779748 
	C39.869999,9.401181 40.479744,9.694241 41.089493,9.987300 
z"/>
<path fill="#87CBE5" opacity="1.000000" stroke="none" 
	d="
M38.959469,8.451374 
	C38.959469,8.451374 38.953724,8.495007 38.948433,8.518637 
	C39.389164,8.189131 39.835190,7.835994 40.505096,7.311507 
	C40.847244,7.581101 40.965511,8.022045 40.776489,8.729243 
	C39.965958,8.814124 39.462711,8.632750 38.959469,8.451374 
z"/>
<path fill="#0081AF" opacity="1.000000" stroke="none" 
	d="
M9.481421,18.696371 
	C8.614601,18.341097 7.747783,17.985823 7.103953,17.281874 
	C7.575123,16.901043 7.823304,16.868889 8.497515,16.907888 
	C10.936165,16.979408 12.948784,16.979773 15.195873,17.006245 
	C15.430343,17.032351 15.902106,17.023994 15.902107,17.023994 
	C15.258645,17.411196 14.615183,17.798397 13.718635,18.492538 
	C13.465549,18.799480 13.577614,18.884949 13.349960,18.542719 
	C11.888344,18.431286 10.654380,18.662081 9.477428,18.856716 
	C9.534442,18.820555 9.481421,18.696371 9.481421,18.696371 
z"/>
<path fill="#0B8BB5" opacity="1.000000" stroke="none" 
	d="
M13.924833,20.154066 
	C13.998417,23.140240 14.072001,26.126411 13.734287,29.516989 
	C13.076807,29.890223 12.830624,29.859053 12.659266,29.403141 
	C12.742034,26.658701 12.749978,24.339005 12.771814,21.774422 
	C12.635469,21.187683 12.373717,21.021891 11.752701,20.966358 
	C11.337495,20.934673 11.170041,20.968792 10.754556,20.973097 
	C10.506524,20.943285 10.013337,21.023287 10.003266,20.823650 
	C9.993196,20.624014 9.987896,20.224268 10.381922,20.210148 
	C11.825576,20.182039 12.875204,20.168053 13.924833,20.154066 
z"/>
<path fill="#1D8FB7" opacity="1.000000" stroke="none" 
	d="
M16.001951,16.598053 
	C15.902106,17.023994 15.430343,17.032351 15.174578,16.627346 
	C12.594922,16.129721 10.271033,16.037102 7.731015,15.798804 
	C7.380504,15.162681 7.246121,14.672236 7.111738,14.181791 
	C9.516619,14.150593 11.934605,13.972384 14.317765,14.184834 
	C14.966340,14.242652 15.509990,15.477472 16.001951,16.598053 
z"/>
<path fill="#64A8C7" opacity="1.000000" stroke="none" 
	d="
M8.857860,35.081497 
	C8.548461,34.987518 8.306499,34.804424 8.085465,34.010674 
	C8.052159,33.287739 8.065364,33.086338 8.497290,32.943298 
	C10.605044,32.973701 12.294078,32.945732 13.983112,32.917767 
	C14.180516,33.528137 14.377920,34.138504 14.193949,34.773888 
	C13.460651,34.893051 13.108730,34.987206 12.440852,35.070881 
	C11.492679,35.058517 10.860462,35.056637 10.074827,34.903942 
	C9.566892,34.862583 9.212376,34.972038 8.857860,35.081497 
z"/>
<path fill="#F5FEFF" opacity="1.000000" stroke="none" 
	d="
M13.991080,32.613663 
	C12.294078,32.945732 10.605044,32.973701 8.464401,32.719032 
	C8.012794,32.436398 8.162384,32.008205 8.330086,31.890041 
	C8.715003,31.602030 8.902452,31.404003 9.022511,31.105953 
	C8.984888,31.034111 8.943639,30.877251 9.362217,30.947390 
	C11.192265,31.042669 12.603733,31.067812 14.015202,31.092953 
	C14.009817,31.498491 14.004433,31.904026 13.991080,32.613663 
z"/>
<path fill="#0285B1" opacity="1.000000" stroke="none" 
	d="
M9.987896,20.224268 
	C9.987896,20.224268 9.993196,20.624014 10.010977,21.074837 
	C10.085945,21.683102 10.143131,21.840542 10.161324,22.436647 
	C10.194947,25.206768 10.267568,27.538223 9.983633,29.869333 
	C9.389433,29.863647 9.151789,29.858307 8.893458,29.848110 
	C8.872772,29.843254 8.851285,29.881517 8.830568,29.650368 
	C8.809852,29.419216 8.672266,28.975924 8.672266,28.975924 
	C8.767192,26.324926 8.862117,23.673931 9.243643,20.557449 
	C9.530242,20.091963 9.987896,20.224268 9.987896,20.224268 
z"/>
<path fill="#52A0C2" opacity="1.000000" stroke="none" 
	d="
M13.859208,37.917427 
	C12.370225,38.140514 10.881242,38.363598 9.459819,38.138660 
	C9.746112,37.467709 9.939973,37.224922 10.332258,37.047344 
	C11.326487,37.069366 12.097417,37.006317 13.007278,37.132748 
	C13.323092,37.593437 13.560759,37.791840 13.859208,37.917427 
z"/>
<path fill="#97BDD3" opacity="1.000000" stroke="none" 
	d="
M10.381922,20.210148 
	C9.987896,20.224268 9.530242,20.091963 9.293320,20.119972 
	C9.115440,19.902206 9.174484,19.656429 9.357474,19.053513 
	C9.481421,18.696371 9.534442,18.820555 9.997085,18.881170 
	C11.499022,18.922840 12.538319,18.903894 13.577614,18.884949 
	C13.577614,18.884949 13.465549,18.799480 13.496552,18.738256 
	C13.600738,18.921171 13.673919,19.165308 13.835966,19.781755 
	C12.875204,20.168053 11.825576,20.182039 10.381922,20.210148 
z"/>
<path fill="#3792B8" opacity="1.000000" stroke="none" 
	d="
M8.914145,29.852964 
	C9.151789,29.858307 9.389433,29.863647 10.260778,29.811546 
	C11.457800,29.778696 12.021120,29.803291 12.584441,29.827885 
	C12.830624,29.859053 13.076807,29.890223 13.692741,29.966034 
	C14.087077,30.192472 14.111663,30.374266 14.075726,30.824507 
	C12.603733,31.067812 11.192265,31.042669 9.354702,30.691322 
	C8.923787,30.194401 8.918965,30.023684 8.914145,29.852964 
z"/>
<path fill="#148BB5" opacity="1.000000" stroke="none" 
	d="
M8.893458,29.848110 
	C8.918965,30.023684 8.923787,30.194401 8.936123,30.621183 
	C8.943639,30.877251 8.984888,31.034111 8.762990,31.086075 
	C8.414856,31.428093 8.288620,31.718149 8.162384,32.008205 
	C8.162384,32.008205 8.012794,32.436398 8.045681,32.660667 
	C8.065364,33.086338 8.052159,33.287739 8.013344,33.790802 
	C7.786796,32.779236 7.585858,31.466009 7.893912,29.982147 
	C8.402905,29.811512 8.851285,29.881517 8.851285,29.881517 
	C8.851285,29.881517 8.872772,29.843254 8.893458,29.848110 
z"/>
<path fill="#0285B1" opacity="1.000000" stroke="none" 
	d="
M13.924368,37.567673 
	C13.560759,37.791840 13.323092,37.593437 13.042283,36.820099 
	C12.877841,35.905766 12.817325,35.493565 12.756809,35.081360 
	C13.108730,34.987206 13.460651,34.893051 13.970053,34.944771 
	C14.081532,35.799740 14.035530,36.508831 13.924368,37.567673 
z"/>
<path fill="#0285B1" opacity="1.000000" stroke="none" 
	d="
M10.108962,36.962276 
	C9.939973,37.224922 9.746112,37.467709 9.323204,37.803436 
	C9.070191,37.206520 9.021353,36.496803 8.915187,35.434288 
	C9.212376,34.972038 9.566892,34.862583 9.994358,35.216270 
	C10.081194,36.107033 10.095078,36.534653 10.108962,36.962276 
z"/>
<path fill="#84B5CE" opacity="1.000000" stroke="none" 
	d="
M6.883173,14.326030 
	C7.246121,14.672236 7.380504,15.162681 7.776816,16.019840 
	C8.038746,16.386555 8.071485,16.836733 8.071485,16.836733 
	C7.823304,16.868889 7.575123,16.901043 6.951896,16.952297 
	C6.602768,16.137688 6.628687,15.303978 6.883173,14.326030 
z"/>
<path fill="#AED5E6" opacity="1.000000" stroke="none" 
	d="
M8.830568,29.650368 
	C8.851285,29.881517 8.402905,29.811512 8.184823,29.748520 
	C8.035815,29.455538 8.166626,29.268791 8.515718,29.050604 
	C8.672266,28.975924 8.809852,29.419216 8.830568,29.650368 
z"/>
<path fill="#EFFAFE" opacity="1.000000" stroke="none" 
	d="
M20.415562,31.919220 
	C20.105551,27.637091 20.043865,23.283232 20.011560,18.465714 
	C20.912422,18.510767 21.783901,19.019480 22.814497,20.226913 
	C23.018673,23.626068 23.063732,26.326504 22.931210,29.270657 
	C22.495930,30.023548 22.238234,30.532721 21.980537,31.041891 
	C21.541655,31.310425 21.102772,31.578959 20.415562,31.919220 
z"/>
<path fill="#5FA7C7" opacity="1.000000" stroke="none" 
	d="
M23.108793,29.026937 
	C23.063732,26.326504 23.018673,23.626068 22.995987,20.479733 
	C23.191423,20.003679 23.364481,19.973528 23.890602,20.204979 
	C24.454271,20.726982 24.714222,20.921417 24.998447,21.491493 
	C24.926098,24.302784 24.878820,26.672468 24.544401,29.041512 
	C23.874437,29.036226 23.491615,29.031582 23.108793,29.026937 
z"/>
<path fill="#1696BE" opacity="1.000000" stroke="none" 
	d="
M25.023518,21.049889 
	C24.714222,20.921417 24.454271,20.726982 24.151859,20.239279 
	C25.329832,20.011976 26.599613,20.011976 28.237827,20.011976 
	C28.237827,22.956326 28.237827,25.417210 27.965860,28.532284 
	C27.352316,29.412758 27.010738,29.639038 26.764090,29.440607 
	C26.092028,26.396309 29.156656,22.893856 25.023518,21.049889 
z"/>
<path fill="#EDF7FC" opacity="1.000000" stroke="none" 
	d="
M23.032179,33.132172 
	C23.032663,32.726311 23.033148,32.320450 23.451851,31.507435 
	C25.591185,31.083101 27.312296,31.065922 29.033409,31.048740 
	C29.033409,31.048740 29.020945,30.970758 29.020304,31.388395 
	C28.983351,32.359734 28.947039,32.913433 28.630569,33.423420 
	C27.973953,33.389580 27.597494,33.399452 26.816496,33.284447 
	C25.285364,33.150433 24.158772,33.141304 23.032179,33.132172 
z"/>
<path fill="#4097BB" opacity="1.000000" stroke="none" 
	d="
M29.007584,30.733953 
	C27.312296,31.065922 25.591185,31.083101 23.452446,31.203016 
	C22.853807,31.282953 22.672792,31.260153 22.236160,31.139622 
	C22.238234,30.532721 22.495930,30.023548 22.931210,29.270657 
	C23.491615,29.031582 23.874437,29.036226 24.748257,29.195181 
	C25.715889,29.521435 26.192526,29.693377 26.669161,29.865320 
	C27.010738,29.639038 27.352316,29.412758 27.913511,28.970060 
	C28.416006,29.308819 28.698883,29.863993 29.007584,30.733953 
z"/>
<path fill="#97C7DD" opacity="1.000000" stroke="none" 
	d="
M23.097277,16.186764 
	C24.776423,15.870321 26.454582,15.548279 28.137238,15.251762 
	C28.235157,15.234506 28.425598,15.403941 28.468668,15.523936 
	C28.501413,15.615172 28.368395,15.765905 27.730053,15.961136 
	C25.799742,16.083658 24.448509,16.135212 23.097277,16.186764 
z"/>
<path fill="#6FACC9" opacity="1.000000" stroke="none" 
	d="
M23.009172,33.467674 
	C24.158772,33.141304 25.285364,33.150433 26.732704,33.558594 
	C26.958832,34.325317 26.864214,34.693020 26.434921,35.085213 
	C25.653801,35.159584 25.207357,35.209461 24.760914,35.259338 
	C24.169331,34.773952 23.577749,34.288567 23.009172,33.467674 
z"/>
<path fill="#2393BB" opacity="1.000000" stroke="none" 
	d="
M26.769596,35.060719 
	C26.864214,34.693020 26.958832,34.325317 27.137241,33.683472 
	C27.597494,33.399452 27.973953,33.389580 28.591137,33.581657 
	C28.831860,33.783604 29.001280,34.062408 29.001280,34.062408 
	C28.394646,35.240959 27.788013,36.419514 27.074818,37.004257 
	C26.902037,35.960541 26.835817,35.510632 26.769596,35.060719 
z"/>
<path fill="#6FACC9" opacity="1.000000" stroke="none" 
	d="
M29.307339,33.954880 
	C29.001280,34.062408 28.831860,33.783604 28.871292,33.625366 
	C28.947039,32.913433 28.983351,32.359734 28.980869,31.390381 
	C29.165848,31.932268 29.389622,32.889809 29.307339,33.954880 
z"/>
<path fill="#CCEDF8" opacity="1.000000" stroke="none" 
	d="
M23.381258,16.334679 
	C24.448509,16.135212 25.799742,16.083658 27.557173,16.055151 
	C26.530661,16.212996 25.097950,16.347795 23.381258,16.334679 
z"/>
<path fill="#A0E0F6" opacity="1.000000" stroke="none" 
	d="
M26.434921,35.085213 
	C26.835817,35.510632 26.902037,35.960541 26.896173,36.745735 
	C26.234901,36.637505 25.645712,36.193989 24.908718,35.504906 
	C25.207357,35.209461 25.653801,35.159584 26.434921,35.085213 
z"/>
<path fill="#C7E8F4" opacity="1.000000" stroke="none" 
	d="
M34.568913,40.819729 
	C34.132019,40.046436 34.128098,39.339600 34.164749,38.280785 
	C35.130276,37.951645 36.055233,37.974487 37.407383,37.932724 
	C37.834579,37.868114 38.045311,37.951706 38.209015,38.275955 
	C39.961212,38.391224 41.549709,38.182247 43.497707,37.982311 
	C44.814327,37.981201 45.771450,37.971046 46.728569,37.960892 
	C46.692467,38.536324 46.656368,39.111759 46.177120,39.947609 
	C45.450188,40.336678 45.201332,40.514278 44.987400,40.740826 
	C44.157333,40.813480 43.327267,40.886131 42.260628,41.039452 
	C39.683334,41.042141 37.342609,40.964161 34.568913,40.819729 
z"/>
<path fill="#A0C7DE" opacity="1.000000" stroke="none" 
	d="
M43.952950,42.793571 
	C44.059376,44.060253 44.011284,45.128864 43.975449,46.598518 
	C43.317650,46.170231 42.647594,45.340897 42.212994,44.094528 
	C42.605362,43.181961 42.762283,42.686420 42.919197,42.190880 
	C43.212276,42.325752 43.505352,42.460625 43.952950,42.793571 
z"/>
<path fill="#DFEFF7" opacity="1.000000" stroke="none" 
	d="
M42.692734,42.096031 
	C42.762283,42.686420 42.605362,43.181961 42.227058,43.821327 
	C41.385738,43.433853 40.765797,42.902550 40.102242,42.333862 
	C40.582767,42.223896 41.049042,42.117191 41.758884,41.925209 
	C42.002453,41.839928 42.466270,42.001179 42.692734,42.096031 
z"/>
<path fill="#E9F6FB" opacity="1.000000" stroke="none" 
	d="
M46.811333,18.036211 
	C46.842098,22.047705 46.872864,26.059198 46.568253,30.417992 
	C45.241230,30.172478 44.249584,29.579662 43.154053,28.553944 
	C43.033920,25.745377 43.017685,23.369709 43.046703,20.704460 
	C42.939735,20.056231 42.787510,19.697578 42.764023,19.074972 
	C42.951168,18.624142 43.009563,18.437267 43.386009,18.202883 
	C44.128128,18.101984 44.552200,18.048594 45.281971,18.007833 
	C45.995556,18.025711 46.403442,18.030962 46.811333,18.036211 
z"/>
<path fill="#E9F6FB" opacity="1.000000" stroke="none" 
	d="
M46.807190,37.568554 
	C45.771450,37.971046 44.814327,37.981201 43.460915,37.611595 
	C43.038589,36.486794 43.012562,35.741753 43.075695,34.755653 
	C43.202934,34.347530 43.241013,34.180470 43.469276,34.084896 
	C44.695179,34.100838 45.730896,34.045292 46.766613,33.989742 
	C46.806343,35.051899 46.846077,36.114059 46.807190,37.568554 
z"/>
<path fill="#E2F0F7" opacity="1.000000" stroke="none" 
	d="
M46.847389,33.618378 
	C45.730896,34.045292 44.695179,34.100838 43.374741,33.859619 
	C43.090015,33.562855 42.976799,33.087662 42.930164,32.606033 
	C42.854603,31.803116 42.825680,31.481827 42.901840,30.901287 
	C43.090595,30.090309 43.174271,29.538578 43.257942,28.986845 
	C44.249584,29.579662 45.241230,30.172478 46.500710,30.874947 
	C46.821754,31.738737 46.874962,32.492874 46.847389,33.618378 
z"/>
<path fill="#CDE2EE" opacity="1.000000" stroke="none" 
	d="
M46.899315,17.648994 
	C46.403442,18.030962 45.995556,18.025711 45.306129,17.616268 
	C44.966190,16.171352 44.907791,15.130630 44.849392,14.089909 
	C45.137932,13.827057 45.426472,13.564205 45.901558,13.075024 
	C46.387836,14.319723 46.687565,15.790751 46.899315,17.648994 
z"/>
<path fill="#0D89B4" opacity="1.000000" stroke="none" 
	d="
M39.109859,8.779748 
	C39.462711,8.632750 39.965958,8.814124 40.868202,9.059147 
	C41.495922,9.260402 41.689919,9.436311 41.966053,9.811903 
	C42.082912,9.973282 41.585903,9.994861 41.337700,9.991080 
	C40.479744,9.694241 39.869999,9.401181 39.109859,8.779748 
z"/>
<path fill="#AED6E7" opacity="1.000000" stroke="none" 
	d="
M45.242390,40.765099 
	C45.201332,40.514278 45.450188,40.336678 45.954933,40.143158 
	C45.949722,40.315323 45.723553,40.552349 45.242390,40.765099 
z"/>
<path fill="#3F94B9" opacity="1.000000" stroke="none" 
	d="
M43.154053,28.553944 
	C43.174271,29.538578 43.090595,30.090309 42.537834,30.866346 
	C40.357563,31.279673 38.646374,31.468693 36.935188,31.657715 
	C37.109543,30.932417 37.283897,30.207121 37.819660,29.260338 
	C38.181068,29.038853 38.581688,29.200251 38.581688,29.200251 
	C38.581688,29.200251 39.020271,29.099682 39.422310,29.094004 
	C40.224777,26.438089 40.625206,23.787851 41.516731,21.062489 
	C42.339035,20.989588 42.670238,20.991816 43.001446,20.994041 
	C43.017685,23.369709 43.033920,25.745377 43.154053,28.553944 
z"/>
<path fill="#0284B1" opacity="1.000000" stroke="none" 
	d="
M44.574768,14.194895 
	C44.907791,15.130630 44.966190,16.171352 45.000435,17.603638 
	C44.552200,18.048594 44.128128,18.101984 42.981628,18.102688 
	C41.156059,18.107071 40.052906,18.164141 38.949757,18.221210 
	C38.209118,18.106438 37.468479,17.991663 36.727840,17.876890 
	C36.725067,17.559277 36.722294,17.241661 36.719517,16.924047 
	C38.537350,16.924047 40.355179,16.924047 42.841026,16.894745 
	C43.629757,16.576017 43.750477,16.286591 43.871193,15.997166 
	C44.014179,15.431404 44.157166,14.865643 44.574768,14.194895 
z"/>
<path fill="#6CAAC8" opacity="1.000000" stroke="none" 
	d="
M42.976799,33.087662 
	C42.976799,33.087662 43.090015,33.562855 43.184551,33.788132 
	C43.241013,34.180470 43.202934,34.347530 42.661476,34.760693 
	C41.884357,35.043213 41.610622,35.079636 41.070469,35.087364 
	C40.264343,35.032806 39.724640,35.006939 39.014824,34.832001 
	C38.483688,34.858009 38.122662,35.033089 37.761631,35.208168 
	C37.496452,34.450832 37.231277,33.693497 37.292519,32.846786 
	C39.404888,32.867493 41.190842,32.977577 42.976799,33.087662 
z"/>
<path fill="#F5FEFF" opacity="1.000000" stroke="none" 
	d="
M42.930164,32.606033 
	C41.190842,32.977577 39.404888,32.867493 37.294182,32.419422 
	C36.969433,32.081436 37.023148,31.795906 36.979168,31.726810 
	C38.646374,31.468693 40.357563,31.279673 42.432751,31.125595 
	C42.825680,31.481827 42.854603,31.803116 42.930164,32.606033 
z"/>
<path fill="#008AB5" opacity="1.000000" stroke="none" 
	d="
M39.020271,29.099682 
	C39.020271,29.099682 38.581688,29.200251 38.581688,29.200251 
	C38.581688,29.200251 38.181068,29.038853 38.050598,28.958908 
	C38.007412,25.982807 38.094700,23.086649 38.654495,20.284504 
	C39.173271,20.606764 39.219543,20.835012 39.168831,21.497890 
	C39.054653,24.321573 39.037460,26.710629 39.020271,29.099682 
z"/>
<path fill="#77B2CD" opacity="1.000000" stroke="none" 
	d="
M39.265816,21.063263 
	C39.219543,20.835012 39.173271,20.606764 39.017731,20.046082 
	C38.908466,19.713652 38.832630,19.262274 39.233948,19.127567 
	C40.635269,19.108217 41.635277,19.223572 42.635281,19.338928 
	C42.787510,19.697578 42.939735,20.056231 43.046703,20.704460 
	C42.670238,20.991816 42.339035,20.989588 41.298927,21.061666 
	C40.148621,21.111736 39.707218,21.087500 39.265816,21.063263 
z"/>
<path fill="#0187B3" opacity="1.000000" stroke="none" 
	d="
M37.796974,35.560669 
	C38.122662,35.033089 38.483688,34.858009 38.924530,35.194832 
	C39.068825,36.442654 39.133301,37.178570 38.909695,37.924835 
	C38.429512,37.940689 38.237411,37.946198 38.045311,37.951706 
	C38.045311,37.951706 37.834579,37.868114 37.754158,37.947540 
	C37.726597,37.322372 37.779457,36.617771 37.796974,35.560669 
z"/>
<path fill="#C2DAE8" opacity="1.000000" stroke="none" 
	d="
M42.764023,19.074972 
	C41.635277,19.223572 40.635269,19.108217 39.265106,18.900846 
	C38.894947,18.808832 38.903458,18.513247 38.926605,18.367229 
	C40.052906,18.164141 41.156059,18.107071 42.663586,18.150196 
	C43.009563,18.437267 42.951168,18.624142 42.764023,19.074972 
z"/>
<path fill="#CCEDF8" opacity="1.000000" stroke="none" 
	d="
M43.709351,16.113869 
	C43.750477,16.286591 43.629757,16.576017 43.249252,16.832506 
	C43.153400,16.588251 43.339417,16.398584 43.709351,16.113869 
z"/>
<path fill="#CCEDF8" opacity="1.000000" stroke="none" 
	d="
M8.497515,16.907888 
	C8.071485,16.836733 8.038746,16.386555 7.992945,16.165520 
	C10.271033,16.037102 12.594922,16.129721 14.940107,16.601238 
	C12.948784,16.979773 10.936165,16.979408 8.497515,16.907888 
z"/>
<path fill="#C2DAE8" opacity="1.000000" stroke="none" 
	d="
M13.349960,18.542719 
	C12.538319,18.903894 11.499022,18.922840 9.940071,18.917332 
	C10.654380,18.662081 11.888344,18.431286 13.349960,18.542719 
z"/>
<path fill="#A0E0F6" opacity="1.000000" stroke="none" 
	d="
M12.659266,29.403143 
	C12.021120,29.803291 11.457800,29.778696 10.617333,29.811890 
	C10.267568,27.538223 10.194947,25.206768 10.315578,22.287949 
	C10.705839,21.490974 10.870426,21.258415 11.002587,21.002909 
	C11.170041,20.968792 11.337495,20.934673 11.855412,21.147949 
	C12.361945,21.628056 12.545960,21.836044 12.757922,22.019306 
	C12.749978,24.339005 12.742034,26.658701 12.659266,29.403143 
z"/>
<path fill="#87CBE5" opacity="1.000000" stroke="none" 
	d="
M12.771814,21.774422 
	C12.545960,21.836044 12.361945,21.628056 12.103165,21.213749 
	C12.373717,21.021891 12.635469,21.187683 12.771814,21.774422 
z"/>
<path fill="#8CD0E8" opacity="1.000000" stroke="none" 
	d="
M10.754556,20.973097 
	C10.870426,21.258415 10.705839,21.490974 10.354573,21.849281 
	C10.143131,21.840542 10.085945,21.683102 10.021048,21.274475 
	C10.013337,21.023287 10.506524,20.943285 10.754556,20.973097 
z"/>
<path fill="#90D3EB" opacity="1.000000" stroke="none" 
	d="
M10.332258,37.047344 
	C10.095078,36.534653 10.081194,36.107033 10.147778,35.367081 
	C10.860462,35.056637 11.492679,35.058517 12.440851,35.070877 
	C12.817325,35.493565 12.877841,35.905766 12.903353,36.630623 
	C12.097417,37.006317 11.326487,37.069366 10.332258,37.047344 
z"/>
<path fill="#DFEFF7" opacity="1.000000" stroke="none" 
	d="
M8.330086,31.890041 
	C8.288620,31.718149 8.414856,31.428093 8.800612,31.157917 
	C8.902452,31.404003 8.715003,31.602030 8.330086,31.890041 
z"/>
<path fill="#9ADBF2" opacity="1.000000" stroke="none" 
	d="
M26.764090,29.440607 
	C26.192526,29.693377 25.715889,29.521435 25.035398,29.195824 
	C24.878820,26.672468 24.926098,24.302784 24.998447,21.491493 
	C29.156656,22.893856 26.092028,26.396309 26.764090,29.440607 
z"/>
<path fill="#4899BD" opacity="1.000000" stroke="none" 
	d="
M38.209015,38.275955 
	C38.237411,37.946198 38.429512,37.940689 39.190601,37.831059 
	C40.285355,36.856644 40.811123,35.986351 41.336891,35.116058 
	C41.610622,35.079636 41.884357,35.043213 42.572311,35.001751 
	C43.012562,35.741753 43.038589,36.486794 43.101414,37.602554 
	C41.549709,38.182247 39.961212,38.391224 38.209015,38.275955 
z"/>
<path fill="#9CDDF3" opacity="1.000000" stroke="none" 
	d="
M39.168831,21.497890 
	C39.707218,21.087500 40.148621,21.111736 40.807827,21.136793 
	C40.625206,23.787851 40.224777,26.438089 39.422310,29.094004 
	C39.037460,26.710629 39.054653,24.321573 39.168831,21.497890 
z"/>
<path fill="#89CEE7" opacity="1.000000" stroke="none" 
	d="
M41.070473,35.087364 
	C40.811123,35.986351 40.285355,36.856644 39.478683,37.820713 
	C39.133301,37.178570 39.068825,36.442654 39.094643,35.343903 
	C39.724640,35.006939 40.264343,35.032806 41.070473,35.087364 
z"/>
</svg>