<svg xmlns="http://www.w3.org/2000/svg" xml:space="preserve" viewBox="0 0 256 256"><path d="M116 257H1.053V1c34.634 0 69.322 0 104.63.448.52 6.43.503 12.414.28 18.392-.108 2.932.25 5.608 3.786 5.568 3.551-.04 4.444-2.668 4.258-5.831-.364-6.19-.674-12.385-1.007-18.577h143.937v256c-32.624 0-65.312 0-98.802-.244 7.437-5.819 10.523-13.33 10.061-23.442-.736-16.127-.143-32.313-.234-48.473-.024-4.135.55-7.723 5.281-8.766 6.862-1.514 11.426-.094 13.469 4.26 2.646 5.637 6.687 9.268 13.093 9.712 5.423.376 10.855.639 16.282.952 4.125.238 7.112-1.034 7.318-6.009 2.546 0 5.111.62 7.104-.182 1.815-.731 3.827-2.8 4.29-4.645.763-3.039-1.936-3.2-4.234-3.168-2.427.033-4.854.007-7.295.007v-9.005c2.71 0 5.174-.082 7.63.022 2.57.109 4.023-.606 4.163-3.562.143-3.044-1.293-4.267-3.975-4.411-2.476-.134-4.964-.029-7.827-.029.07-5.439-3.112-6.365-7.515-6.072-3.981.265-7.994.005-11.992.067-7.064.111-13.218 2.543-16.235 9.158-2.08 4.562-5.03 5.385-9.27 4.853-1.147-.145-2.333-.086-3.495-.012-9.502.612-14.7 3.922-14.737 15.002-.06 18.327 0 36.653-.027 54.98-.007 5.477-3.377 10.293-8.803 10.858-8.201.855-16.57 1.604-24.738.899-10.502-.907-14.315-8.09-11.984-15.298 8.829-1.43 10.369-2.968 12.57-12.406.165-.71.477-1.706 1.012-1.963 7.603-3.651 8.294-10.362 7.955-17.575-.36-7.667-.006-15.428 4.297-21.935 6.679-10.1 13.76-19.972 21.244-29.49 13.928-17.715 19.233-37.627 14.283-59.431-8.199-36.113-39.308-57.215-76.342-52.333-25.214 3.323-43.349 17.915-52.949 41.793-6.767 16.83-6.475 33.954-.02 50.99 4.4 11.618 12.304 20.864 20.226 30.01 10.726 12.385 18.056 25.735 16.438 42.877-.313 3.308.847 7.426 2.787 10.12 3.024 4.198 7.55 7.26 7.974 13.141.08 1.106 1.667 2.437 2.871 3.061 2.804 1.452 5.798 2.537 8.928 3.86 1.087 11.906 1.09 11.903 10.54 20.826.118.111-.177.66-.279 1.003m35.353-221.9c3.178-5.304 6.605-10.484 9.344-16.006.627-1.263-1.117-3.703-1.77-5.6-1.641.671-3.97.875-4.802 2.098-3.014 4.435-5.73 9.106-8.165 13.889-2.213 4.345-.433 6.422 5.393 5.62m-79.248-7.646c-2.186-3.816-4.384-7.625-6.555-11.45-1.251-2.204-2.673-3.566-5.44-2.067-3.02 1.635-2.573 3.996-1.37 6.276 2.434 4.616 4.91 9.242 7.837 13.545.83 1.219 3.463 2.074 4.93 1.714 1.094-.269 1.947-2.691 2.315-4.29.205-.894-.8-2.065-1.717-3.728M29.98 49.484c-2.331-1.706-4.9-1.75-6.31.683-.739 1.274-.412 4.54.58 5.208 4.708 3.172 9.695 6.014 14.857 8.374 1.258.575 3.55-1.114 5.368-1.762-.82-1.823-1.154-4.305-2.556-5.34-3.516-2.595-7.515-4.534-11.939-7.163m155.359 2.429c-2.574 1.403-5.456 2.45-7.618 4.328-1.554 1.35-2.147 3.808-3.168 5.772 2.52.438 5.262 1.705 7.506 1.107 2.872-.765 5.265-3.182 8.006-4.616 3.402-1.779 8.103-3.518 5.375-8.087-2.786-4.666-6.44-.865-10.101 1.496"/><path fill="#1865C1" d="M116.469 257c-.367-.344-.072-.892-.19-1.003-9.45-8.923-9.453-8.92-10.54-20.826-3.13-1.323-6.124-2.408-8.928-3.86-1.204-.624-2.791-1.955-2.871-3.06-.424-5.881-4.95-8.944-7.974-13.142-1.94-2.694-3.1-6.812-2.787-10.12 1.618-17.142-5.712-30.492-16.438-42.877-7.922-9.146-15.825-18.392-20.226-30.01-6.455-17.036-6.747-34.16.02-50.99 9.6-23.878 27.735-38.47 52.95-41.793 37.033-4.882 68.142 16.22 76.341 52.333 4.95 21.804-.355 41.716-14.283 59.43-7.484 9.519-14.565 19.392-21.244 29.491-4.303 6.507-4.657 14.268-4.297 21.935.339 7.213-.352 13.924-7.955 17.575-.535.257-.847 1.252-1.013 1.963-2.2 9.438-3.74 10.975-12.569 12.406-2.331 7.209 1.482 14.391 11.984 15.298 8.168.705 16.537-.044 24.738-.899 5.426-.565 8.796-5.381 8.803-10.858.027-18.327-.033-36.653.027-54.98.037-11.08 5.235-14.39 14.737-15.002 1.162-.074 2.348-.133 3.496.012 4.239.532 7.189-.291 9.27-4.853 3.016-6.615 9.17-9.047 16.234-9.158 3.998-.062 8.011.198 11.992-.067 4.403-.293 7.585.633 7.515 6.072 2.863 0 5.351-.105 7.827.029 2.682.144 4.118 1.367 3.975 4.411-.14 2.956-1.592 3.67-4.164 3.562-2.455-.104-4.919-.022-7.63-.022v9.005c2.442 0 4.87.026 7.296-.007 2.298-.032 4.997.13 4.234 3.168-.463 1.845-2.475 3.914-4.29 4.645-1.993.802-4.558.182-7.104.182-.206 4.975-3.193 6.247-7.318 6.009-5.427-.313-10.859-.576-16.282-.952-6.406-.444-10.447-4.075-13.093-9.713-2.043-4.353-6.607-5.773-13.469-4.26-4.73 1.044-5.305 4.632-5.281 8.767.091 16.16-.502 32.346.234 48.473.462 10.113-2.624 17.623-10.53 23.442-13.354.244-27.041.244-41.197.244M91.827 49.084c-14.48 5.345-26.3 13.918-34.043 27.617-7.336 12.98-9.395 26.729-6.895 41.36 2.518 14.741 11.685 25.614 20.416 36.927 5.969 7.733 11.32 16.014 16.182 24.489 1.526 2.659 2.627 3.59 5.41 3.562 9.82-.1 19.66-.384 29.458.097 5.5.27 7.814-1.815 10.744-6.458 7.75-12.28 16.77-23.759 25.286-35.556 9.696-13.433 12.883-28.526 10.233-44.623-2.22-13.484-8.581-25.144-18.93-34.25-16.586-14.59-35.694-18.89-57.861-13.165m109.332 133.888c1.165.036 2.33.094 3.495.104 10.775.098 10.877.094 10.747-10.834-.144-11.96 2.014-10.594-11.09-10.564-6.68.016-10.91 3.359-12.027 8.987-.997 5.027 1.918 9.46 8.875 12.307m-105.418 7.114-5.194.346c-.302 8.185-.293 8.204 7.011 8.213 8.154.01 16.308.014 24.462-.002 7.12-.013 7.523-.516 6.343-8.557zm5.041 23.559c6.799-.011 13.598.035 20.396-.058 3.592-.049 6.746-1.125 7.07-5.34.075-.975-1.327-2.955-2.075-2.967-11.564-.191-23.133-.133-34.597-.133-1.083 6.651.492 8.137 9.206 8.498m6.962 13.115c2.793-.119 5.688.157 8.334-.528 1.251-.324 2.202-2.41 2.87-3.887.14-.306-1.546-2.07-2.43-2.104-5.372-.205-10.755-.102-16.104-.102-1.12 6.277 2.571 6.544 7.33 6.62M112.563 1c.77 6.192 1.08 12.386 1.444 18.577.186 3.163-.707 5.791-4.258 5.831-3.537.04-3.894-2.636-3.785-5.568.222-5.978.238-11.962.188-18.392C108.042 1 110.083 1 112.562 1M151.077 35.37c-5.55.533-7.33-1.544-5.117-5.89 2.435-4.782 5.151-9.453 8.165-13.888.831-1.223 3.16-1.427 4.803-2.099.652 1.898 2.396 4.338 1.77 5.6-2.74 5.523-6.167 10.703-9.62 16.276M72.333 27.763c.689 1.355 1.694 2.526 1.489 3.42-.368 1.599-1.22 4.021-2.315 4.29-1.467.36-4.1-.495-4.93-1.714-2.927-4.303-5.403-8.929-7.837-13.545-1.203-2.28-1.65-4.64 1.37-6.276 2.767-1.499 4.189-.137 5.44 2.067 2.171 3.825 4.369 7.634 6.783 11.758M30.29 49.697c4.114 2.416 8.113 4.355 11.629 6.95 1.402 1.035 1.735 3.517 2.556 5.34-1.817.648-4.11 2.337-5.368 1.762-5.162-2.36-10.149-5.202-14.858-8.374-.99-.667-1.318-3.934-.58-5.208 1.41-2.434 3.98-2.389 6.621-.47M185.65 51.707c3.35-2.155 7.004-5.956 9.79-1.29 2.728 4.57-1.973 6.308-5.375 8.087-2.741 1.434-5.134 3.851-8.006 4.616-2.244.598-4.986-.669-7.506-1.107 1.021-1.964 1.614-4.422 3.168-5.772 2.162-1.878 5.044-2.925 7.928-4.534"/><path d="M92.235 49.037c21.76-5.678 40.867-1.379 57.452 13.213 10.35 9.105 16.712 20.765 18.931 34.25 2.65 16.096-.537 31.19-10.233 44.622-8.516 11.797-17.536 23.275-25.286 35.556-2.93 4.643-5.244 6.728-10.744 6.458-9.798-.481-19.638-.196-29.459-.097-2.782.028-3.883-.903-5.409-3.562-4.863-8.475-10.213-16.756-16.182-24.489-8.731-11.313-17.898-22.186-20.416-36.926-2.5-14.632-.44-28.382 6.895-41.36 7.743-13.7 19.564-22.273 34.451-27.665m41.864 50.97h-12.452c.531-2.034.884-3.423 1.256-4.807 3.086-11.507 6.264-22.99 9.147-34.548.343-1.375-.488-3.984-1.539-4.517-1.2-.609-3.341.25-4.904.887-.996.405-1.778 1.492-2.495 2.4-13.617 17.243-27.255 34.47-40.717 51.833-1.005 1.296-1.396 3.864-.813 5.344.469 1.189 2.8 2.153 4.386 2.291 3.756.328 7.56.105 11.664.105-1.992 7.38-3.856 14.315-5.735 21.245-1.622 5.978-3.436 11.913-4.76 17.955-.3 1.374.818 4.236 1.722 4.437 1.6.355 3.649-.584 5.293-1.412 1.115-.56 1.933-1.798 2.758-2.834 3.474-4.356 6.898-8.752 10.344-13.13 9.935-12.622 19.995-25.15 29.695-37.948 1.758-2.32 2.956-6.007-2.85-7.301M69.92 84.424c3.456-7.404 9.064-12.867 16.056-16.773 2.972-1.66 3.888-3.695 2.57-6.352-1.474-2.969-4.18-2.878-6.75-1.221-16.472 10.615-25.212 25.647-25.804 45.318-.076 2.537.107 4.537 3.531 4.672 3.38.133 3.921-1.683 4.547-4.41 1.59-6.921 3.585-13.75 5.85-21.234"/><path fill="#82DAF2" d="M200.736 182.922c-6.534-2.798-9.45-7.23-8.452-12.257 1.117-5.628 5.347-8.971 12.027-8.987 13.104-.03 10.946-1.396 11.09 10.564.13 10.928.028 10.932-10.747 10.834-1.165-.01-2.33-.068-3.918-.154"/><path fill="#7AD1EE" d="M96.213 190.086h32.15c1.18 8.04.777 8.544-6.343 8.557-8.154.016-16.308.012-24.462.002-7.304-.01-7.313-.028-7.011-8.213 1.687-.112 3.44-.229 5.666-.346M100.324 213.643c-8.256-.36-9.831-1.845-8.748-8.496 11.464 0 23.033-.058 34.597.133.748.012 2.15 1.992 2.075 2.967-.324 4.215-3.478 5.291-7.07 5.34-6.798.093-13.597.047-20.854.056M107.298 226.757c-4.313-.074-8.004-.34-6.884-6.618 5.35 0 10.732-.103 16.103.102.885.033 2.57 1.798 2.432 2.104-.67 1.477-1.62 3.563-2.87 3.887-2.647.685-5.542.41-8.78.525"/><path fill="#1966C1" d="M134.55 100.016c5.355 1.285 4.157 4.972 2.399 7.292-9.7 12.799-19.76 25.326-29.695 37.948-3.446 4.378-6.87 8.774-10.344 13.13-.825 1.036-1.643 2.273-2.758 2.834-1.644.828-3.693 1.767-5.293 1.412-.904-.2-2.023-3.063-1.722-4.437 1.324-6.042 3.138-11.977 4.76-17.955 1.88-6.93 3.743-13.864 5.735-21.245-4.104 0-7.908.223-11.664-.105-1.586-.138-3.917-1.102-4.386-2.291-.583-1.48-.192-4.048.813-5.344 13.462-17.363 27.1-34.59 40.717-51.833.717-.908 1.5-1.995 2.495-2.4 1.563-.637 3.704-1.496 4.904-.887 1.05.533 1.882 3.142 1.54 4.517-2.884 11.557-6.062 23.041-9.148 34.548-.372 1.384-.725 2.773-1.256 4.807 4.537 0 8.494 0 12.903.01M118.197 78.15l-26.341 33.017c3.504 0 5.413-.016 7.32.003 7.204.07 8.064 1.272 6.098 8.41-1.92 6.97-3.819 13.945-5.727 20.918l1.158.648 26.822-33.868c-4.057 0-6.498.05-8.937-.01-5.483-.131-6.485-1.416-5.06-6.723 1.98-7.376 4.066-14.723 6.299-22.49l-.281-1.203c-.268.306-.536.611-1.351 1.298"/><path fill="#1865C1" d="M69.705 84.733c-2.05 7.175-4.044 14.004-5.634 20.926-.626 2.726-1.167 4.542-4.547 4.409-3.424-.135-3.607-2.135-3.53-4.672.591-19.67 9.33-34.703 25.803-45.318 2.57-1.657 5.276-1.748 6.75 1.221 1.318 2.657.402 4.693-2.57 6.352-6.992 3.906-12.6 9.369-16.272 17.082"/><path fill="#80D8F1" d="M119.636 78.463c-2.04 7.36-4.126 14.707-6.106 22.083-1.425 5.307-.423 6.592 5.06 6.724 2.439.058 4.88.01 8.937.01l-26.822 33.867-1.158-.648c1.908-6.973 3.807-13.948 5.727-20.918 1.966-7.138 1.106-8.34-6.097-8.41-1.908-.019-3.817-.003-7.321-.003 9.447-11.841 17.894-22.43 26.837-33.033.645.098.794.213.943.328"/><path fill="#80D8F1" d="M118.966 77.944c.046-.48.314-.785.582-1.09.093.4.187.801.184 1.406-.245.088-.394-.027-.766-.316"/></svg>