<svg xmlns="http://www.w3.org/2000/svg" xml:space="preserve" viewBox="0 0 512 512"><path fill="#438DFF" d="M513 208c0 5.355 0 10.71-.24 16.202-5.753 6.413-11.238 12.714-16.79 18.955-3.258 3.662-6.25 7.69-10.02 10.74-7.504 6.072-15.539 5.448-23.95-.43v6.597c0 78.44-.038 156.879.064 235.318.009 6.906-2.496 12.01-8.21 15.725-.489.317-.579 1.247-.854 1.893-130.354 0-260.708 0-391.196-.238-6.51-4.887-11.228-10.372-9.414-19.278 1.885-4.162 4.826-6.233 9.117-5.895 4.863.382 6.946 3.817 8.085 8.22 5.534 0 10.957 0 16.846.064 112.984.072 225.502.082 338.019.082 1.161 0 2.323-.119 3.952-.113 3.797.09 7.16-.171 10.45.201 4.854.55 6.104-1.283 6.096-6.083-.146-82.261-.127-164.523-.033-246.785.004-3.676-1.066-6.128-3.927-8.495-59.4-49.137-118.72-98.37-178.058-147.581-6.225-5.163-6.234-5.152-12.59.805a36617 36617 0 0 0-87.668 72.56c-25.889 21.497-51.732 43.049-77.902 64.717-4.152 3.326-7.88 6.67-11.886 9.64-2.82 2.091-3.803 4.486-3.795 8.001.113 45.456.075 90.912.074 136.368 0 15.818-.036 31.636.012 47.454.014 4.526-1.74 7.92-6.177 9.121-4.373 1.185-7.812-.553-10.002-4.592-.234-.43-.558-.813-.93-1.676-.09-58.749-.09-117.04-.09-175.85-11.243 7.155-18.754 5.083-24.619-.172-6.435-5.766-11.563-12.976-17.39-19.44C7.135 230.885 4.001 228.003 1 225c0-5.355 0-10.71.238-16.197 2.805-2.899 5.137-5.94 7.987-8.377 6.96-5.954 14.207-11.568 21.248-17.428 10.588-8.81 21.068-17.751 31.65-26.568 11.446-9.537 22.97-18.98 34.437-28.492 8.33-6.912 16.59-13.91 24.938-20.8 10.85-8.959 21.793-17.803 32.623-26.784 8.837-7.33 17.52-14.846 26.356-22.176 10.831-8.985 21.749-17.866 32.635-26.786 8.73-7.153 17.515-14.24 26.18-21.472 3.37-2.812 6.48-5.937 9.708-8.92 5.022 0 10.044 0 15.197.244 40.19 33.278 80.251 66.31 120.803 99.75 0-11.681-.015-22.646.005-33.61.015-8.268 7.075-15.365 15.317-15.377 14.825-.023 29.667.425 44.469-.167 9.005-.36 17.487 8.483 17.37 17.215-.414 30.81-.198 61.63-.067 92.445.008 1.758.91 4.048 2.196 5.182 15.942 14.062 32.033 27.955 48.108 41.865.025.021.394-.356.602-.547M262.641 23.367l-4.328-6.32L18.116 216.213l21.307 24.173c2.777-2.331 5.186-4.353 8.192-6.671.749-.66 1.48-1.342 2.25-1.98 66.627-55.257 133.254-110.516 199.898-165.754 5.373-4.454 9.2-4.387 14.689.164 35.751 29.643 71.471 59.325 107.231 88.959 31.4 26.02 62.837 51.995 94.652 78.52 1.413 1.162 3.02 2.156 4.198 3.522 2.643 3.065 4.743 2.672 7.234-.287 4.82-5.727 9.765-11.36 14.882-16.822 2.513-2.684 2.573-4.294-.472-6.76-12.542-10.157-24.855-20.598-37.264-30.92q-42.6-35.437-85.213-70.86c-29.175-24.253-58.322-48.54-87.566-72.71-6.24-5.159-12.843-9.879-19.493-15.419m145.617 97.84 35.843 29.83c.44-1.507.77-2.107.77-2.707.038-25.132.018-50.265.089-75.397.01-3.636-2.15-3.904-4.911-3.893-10.985.046-21.973.145-32.954-.049-3.95-.07-5.217 1.366-5.155 5.238.184 11.481.36 22.979-.067 34.447-.2 5.399 1.147 9.373 6.385 12.53"/><path d="M248.531 1c-2.76 2.983-5.868 6.108-9.239 8.92-8.665 7.231-17.45 14.32-26.18 21.472-10.886 8.92-21.804 17.801-32.635 26.786-8.837 7.33-17.519 14.847-26.356 22.176-10.83 8.981-21.774 17.825-32.623 26.783-8.348 6.892-16.608 13.889-24.938 20.8-11.466 9.514-22.99 18.956-34.437 28.493-10.582 8.817-21.062 17.757-31.65 26.568-7.041 5.86-14.289 11.474-21.248 17.428-2.85 2.437-5.182 5.478-7.987 7.91C1 139.065 1 70.132 1 1zM513 207.531c-.208.66-.577 1.037-.602 1.016-16.075-13.91-32.166-27.803-48.108-41.865-1.287-1.134-2.188-3.424-2.196-5.182-.13-30.815-.347-61.635.067-92.445.117-8.732-8.365-17.576-17.37-17.215-14.802.592-29.644.144-44.469.167-8.242.012-15.302 7.11-15.317 15.376-.02 10.965-.005 21.93-.005 33.61-40.552-33.438-80.612-66.471-120.336-99.749C347.587 1 430.174 1 513 1zM453.469 513c-.194-.646-.104-1.576.385-1.893 5.714-3.714 8.219-8.82 8.21-15.725-.102-78.44-.064-156.879-.064-235.318v-6.596c8.411 5.877 16.446 6.501 23.95.43 3.77-3.051 6.762-7.079 10.02-10.741 5.552-6.241 11.037-12.542 16.79-18.487.24 96.21.24 192.088.24 288.33zM52.171 493.716c-1.595 8.674 3.123 14.16 9.164 19.046C41.025 513 21.05 513 1 513V225.469c3 2.534 6.135 5.417 8.974 8.566 5.827 6.464 10.955 13.674 17.39 19.44 5.865 5.255 13.376 7.327 24.62.172 0 58.81 0 117.101.031 176.322.071 10.265.112 19.6.081 29.368-.023 2.186.024 3.938-.006 6.152-.024 9.716.029 18.972.081 28.227"/><path fill="#E8EDFC" d="M85.083 225.04c25.864-21.527 51.707-43.08 77.596-64.577 29.102-24.165 58.244-48.28 88.025-72.449 1.755.699 2.933 1.332 3.939 2.171 14.798 12.35 29.525 24.785 44.365 37.082 18.295 15.16 36.715 30.171 55.018 45.322 23.295 19.281 46.507 38.662 69.81 57.932 2.757 2.279 4.21 4.74 4.207 8.483-.094 85.59-.088 171.18-.101 256.769-1.162.063-2.324.182-3.485.182-112.517 0-225.035-.01-338.01-.538-.448-88.704-.433-176.888-.469-265.073 0-1.768-.584-3.536-.895-5.304m146.506 30.875c-.09-1.992-.258-3.984-.26-5.976-.022-19.998-.073-39.995.005-59.993.035-9.133-3.155-16.686-10.676-21.966-8.33-5.848-17.354-6.64-26.454-1.975-9.29 4.762-13.935 12.769-14.026 23.092-.181 20.496-.06 40.994-.063 61.492v5.91c-2.59.565-4.703.927-6.761 1.491-10.518 2.883-17.911 11.978-18.548 22.87-.175 2.991-.077 5.997-.117 8.996-.147 10.86 4.715 18.715 14.026 24.18 1.462.858 2.84 3.173 2.908 4.869.312 7.82-.033 15.664.183 23.49.954 34.748 17.045 60.15 47.67 76.362 2.609 1.38 3.53 2.886 3.5 5.746-.13 12.164-.121 24.33-.029 36.495.083 10.768 7.1 17.79 17.909 17.903 10.664.11 21.33.094 31.995.005 11.145-.092 18.127-7.042 18.205-18.122.083-11.831.147-23.665-.054-35.494-.059-3.454 1.045-5.191 4.177-6.835 25.551-13.408 41.49-34.263 45.77-62.889 1.76-11.766 1.047-23.917 1.215-35.897.042-3.017.866-4.66 3.643-6.185 8.506-4.674 13.174-12.017 13.45-21.866.101-3.662.129-7.34-.094-10.994-.648-10.647-8.004-19.69-18.262-22.573-2.197-.618-4.455-1.014-7.016-1.587v-6.113c-.001-20.164.034-40.329-.02-60.493-.027-9.674-3.797-17.535-12.093-22.772-16.841-10.632-38.564.98-38.958 21.104-.408 20.823-.117 41.66-.131 62.49-.002 1.947 0 3.894 0 5.962-17.322 0-33.937 0-51.094-.727"/><path fill="#A4C2F7" d="M465.94 233.093c-31.42-25.995-62.857-51.97-94.257-77.99-35.76-29.634-71.48-59.316-107.231-88.96-5.49-4.55-9.316-4.617-14.69-.163-66.643 55.238-133.27 110.497-199.898 165.754-.768.638-1.5 1.32-2.614 1.79-2.99-3.397-5.546-6.663-8.251-9.801-5.304-6.15-5.274-9.943.892-15.203 10.761-9.182 21.703-18.152 32.588-27.188 42.514-35.294 85.023-70.594 127.56-105.86 19.215-15.932 38.492-31.79 57.933-47.38 2.768 2.639 5.264 5.072 7.933 7.3a28707 28707 0 0 0 57.44 47.814c18.145 15.066 36.336 30.078 54.485 45.14 18.66 15.485 37.288 31.01 55.943 46.5 13.8 11.46 27.647 22.862 41.42 34.353 3.956 3.3 5.03 7.992 2.21 11.49-3.526 4.373-7.616 8.29-11.462 12.404"/><path fill="#C8D8FC" d="M428.409 495.842c-.454-85.659-.46-171.248-.366-256.838.004-3.744-1.45-6.204-4.206-8.483-23.304-19.27-46.516-38.65-69.81-57.932-18.304-15.15-36.724-30.161-55.019-45.322-14.84-12.297-29.567-24.732-44.365-37.082-1.006-.839-2.184-1.472-3.64-2.312 5.7-5.926 5.709-5.937 11.934-.774 59.338 49.21 118.658 98.444 178.058 147.58 2.86 2.368 3.931 4.82 3.927 8.496-.094 82.262-.113 164.524.033 246.785.008 4.8-1.242 6.633-6.096 6.083-3.29-.372-6.653-.11-10.45-.201"/><path fill="#FDFEFF" d="M84.777 225.181c.617 1.627 1.2 3.395 1.201 5.163.036 88.185.021 176.369.003 265.01-5.432.455-10.855.455-16.389.455-1.139-4.403-3.222-7.838-8.085-8.22-4.29-.338-7.232 1.733-9.117 5.895-.271-9.023-.324-18.279.002-27.846 1.237.687 1.98 1.827 2.978 2.66 3.438 2.868 8.69 2.445 11.645-.828 2.985-3.307 2.83-8.555-.342-11.68-3.26-3.21-8.27-3.354-11.644-.233-1.07.99-1.914 2.224-2.862 3.346-.04-9.334-.08-18.669-.062-28.476.34-.067.664.315.898.746 2.19 4.039 5.63 5.777 10.002 4.592 4.437-1.202 6.191-4.595 6.177-9.121-.048-15.818-.012-31.636-.012-47.454.001-45.456.039-90.912-.074-136.368-.008-3.515.975-5.91 3.795-8 4.006-2.97 7.734-6.315 11.886-9.64"/><path fill="#7EACFA" d="M407.962 121.003c-4.942-2.954-6.29-6.928-6.089-12.327.427-11.468.25-22.966.067-34.447-.062-3.872 1.205-5.307 5.155-5.238 10.981.194 21.969.095 32.954.049 2.761-.011 4.92.257 4.91 3.893-.07 25.132-.05 50.265-.088 75.397 0 .6-.33 1.2-.77 2.707a22113 22113 0 0 0-36.139-30.034"/><path fill="#FBFCFF" d="M257.78 27.79c-19.25 15.892-38.526 31.75-57.741 47.681-42.537 35.267-85.046 70.567-127.56 105.861-10.885 9.036-21.827 18.006-32.588 27.188-6.166 5.26-6.196 9.053-.892 15.203 2.705 3.138 5.262 6.404 7.952 9.95-2.342 2.359-4.75 4.38-7.528 6.712l-21.307-24.173L258.313 17.048c1.53 2.234 2.93 4.277 4.121 6.694-1.69 1.6-3.172 2.824-4.654 4.049"/><path fill="#7FACFA" d="M257.972 28.092c1.29-1.526 2.773-2.75 4.57-4.04 6.75 4.855 13.352 9.575 19.592 14.733 29.244 24.17 58.39 48.458 87.566 72.711q42.613 35.423 85.213 70.86c12.41 10.322 24.722 20.763 37.264 30.92 3.045 2.466 2.985 4.076.472 6.76-5.117 5.462-10.062 11.095-14.882 16.822-2.491 2.96-4.591 3.352-7.234.287-1.177-1.366-2.785-2.36-4.395-3.787 3.65-4.379 7.74-8.296 11.265-12.67 2.82-3.497 1.746-8.188-2.21-11.489-13.773-11.49-27.62-22.894-41.42-34.353-18.655-15.49-37.283-31.015-55.943-46.5-18.15-15.062-36.34-30.074-54.486-45.14a28707 28707 0 0 1-57.44-47.815c-2.668-2.227-5.164-4.66-7.932-7.3"/><path fill="#4690FF" d="M52.096 459.337c1.019-1.556 1.863-2.79 2.933-3.78 3.375-3.121 8.384-2.978 11.644.233 3.173 3.125 3.327 8.373.342 11.68-2.955 3.273-8.207 3.696-11.645.828-.999-.833-1.74-1.973-2.902-3.122-.348-1.9-.395-3.653-.372-5.839"/><path fill="#448EFF" d="M231.86 256.279c16.886.363 33.501.363 50.823.363 0-2.068-.002-4.015 0-5.962.014-20.83-.277-41.667.13-62.49.395-20.124 22.118-31.736 38.96-21.104 8.295 5.237 12.065 13.098 12.091 22.772.055 20.164.02 40.329.021 60.493v6.113c2.56.573 4.82.97 7.016 1.587 10.258 2.883 17.614 11.926 18.262 22.573.223 3.654.195 7.332.093 10.994-.275 9.849-4.943 17.192-13.449 21.866-2.777 1.526-3.6 3.168-3.643 6.185-.168 11.98.544 24.13-1.215 35.897-4.28 28.626-20.219 49.481-45.77 62.89-3.132 1.643-4.236 3.38-4.177 6.834.2 11.829.137 23.663.054 35.494-.078 11.08-7.06 18.03-18.205 18.122-10.664.09-21.331.105-31.995-.005-10.81-.112-17.826-7.135-17.909-17.903-.092-12.164-.101-24.33.03-36.495.03-2.86-.892-4.365-3.501-5.746-30.625-16.211-46.716-41.614-47.67-76.361-.216-7.827.129-15.671-.183-23.491-.068-1.696-1.446-4.01-2.908-4.869-9.311-5.465-14.173-13.32-14.026-24.18.04-2.999-.058-6.005.117-8.996.637-10.892 8.03-19.987 18.548-22.87 2.058-.564 4.171-.926 6.76-1.49l.001-5.911c.003-20.498-.118-40.996.063-61.492.091-10.323 4.737-18.33 14.026-23.092 9.1-4.664 18.123-3.873 26.454 1.975 7.521 5.28 10.711 12.833 10.676 21.966-.078 19.998-.027 39.995-.005 59.993.002 1.992.17 3.984.531 6.34m91.066 17.903-141.37-.146c-.166 0-.332-.002-.499.008-5.353.324-8.467 2.89-9.094 7.492-1.445 10.613.276 15.914 6.033 17.588 2.187.635 4.597.686 6.907.688 44.294.038 88.588.033 132.882.01 1.988 0 3.975-.254 6.895-.127 3.153-.008 6.353.324 9.446-.11 4.06-.568 7.62-2.729 7.752-7.185.384-13.009 2.607-19.556-16.567-18.294-.496.032-.986.144-2.385.076m-50.24 134.536c26.843-7.198 44.511-24.14 50.475-51.2 2.678-12.148 1.503-25.16 1.793-37.787.021-.93-2.217-2.654-3.486-2.735-4.474-.285-8.984-.016-14.406-.102H188.928c0 10.243-.288 19.863.05 29.462 1.452 41.323 42.904 72.398 83.708 62.362M214.237 235.5c0-5.997.003-11.994 0-17.991-.007-9.495.085-18.992-.068-28.485-.085-5.228-3.624-8.775-8.283-8.819-4.41-.041-7.983 3.298-8.616 8.115-.13.985-.097 1.995-.097 2.994-.005 20.323-.012 40.646.01 60.97.001 1.442.219 2.883.342 4.394h16.713zm85.524-30v51.105h17.072c0-13.857.003-27.32-.002-40.785-.003-8.829.127-17.66-.078-26.485-.129-5.496-3.856-9.167-8.63-9.13-4.836.037-8.19 3.688-8.322 9.304-.116 4.995-.034 9.994-.04 15.991m-46.25 256.388c5.149 0 10.308-.2 15.443.065 3.803.196 5.322-.891 5.159-4.973-.307-7.628-.088-15.278-.087-22.918v-6.998h-34.054v22.446c0 12.379 0 12.379 13.539 12.378"/><path fill="#E8EDFC" d="M271.935 408.693c-40.053 10.061-81.505-21.014-82.957-62.337-.338-9.599-.05-19.219-.05-29.462 39.695 0 78.915 0 118.603.538.471 8.514.496 16.488.472 24.463-.073 24.604-9.676 44.685-28.64 60.332-2.531 2.088-4.955 4.307-7.428 6.466"/><path fill="#A4C2F7" d="M323.748 299.432c-1.988.136-3.975.39-5.963.39-44.294.023-88.588.028-132.882-.01-2.31-.002-4.72-.053-6.907-.688-5.757-1.674-7.478-6.975-6.033-17.588.627-4.602 3.74-7.168 9.094-7.492.167-.01.333-.009.5-.008 47.123.048 94.246.097 141.87.613.442 8.572.382 16.677.32 24.783"/><path fill="#C9D9FC" d="M272.31 408.705c2.098-2.17 4.522-4.39 7.053-6.478 18.964-15.647 28.567-35.728 28.64-60.332.024-7.975-.001-15.95-.01-24.39 4.491-.525 9-.794 13.475-.509 1.269.081 3.507 1.806 3.486 2.735-.29 12.626.885 25.639-1.793 37.787-5.964 27.06-23.632 44.002-50.85 51.187"/><path fill="#E5EBFC" d="M214.237 236v20.678h-16.712c-.123-1.51-.34-2.952-.342-4.394-.022-20.324-.015-40.647-.01-60.97 0-.999-.032-2.009.097-2.994.633-4.817 4.206-8.156 8.616-8.115 4.66.044 8.198 3.591 8.283 8.819.153 9.493.061 18.99.067 28.485.004 5.997.001 11.994.001 18.49M299.762 205c.006-5.497-.076-10.496.04-15.491.131-5.616 3.486-9.267 8.322-9.304 4.774-.037 8.501 3.634 8.63 9.13.205 8.824.075 17.656.078 26.485.005 13.464.002 26.928.002 40.785h-17.072z"/><path fill="#C9D8FC" d="M253.014 461.888c-13.04 0-13.04 0-13.04-12.378v-22.446h34.053v6.998c0 7.64-.22 15.29.087 22.918.163 4.082-1.356 5.17-5.159 4.973-5.135-.265-10.294-.065-15.94-.065"/><path fill="#80ADFA" d="M324.214 299.564c-.405-8.238-.345-16.343-.333-24.844.444-.47.934-.582 1.43-.614 19.174-1.262 16.951 5.285 16.567 18.294-.132 4.456-3.692 6.617-7.752 7.186-3.093.433-6.293.101-9.912-.022"/></svg>