<svg version="1.1" id="Layer_1" xmlns="http://www.w3.org/2000/svg" xmlns:xlink="http://www.w3.org/1999/xlink" x="0px" y="0px"
	 width="100%" viewBox="0 0 50 50" enable-background="new 0 0 50 50" xml:space="preserve">
<path fill="#0198FF" opacity="1.000000" stroke="none" 
	d="
M21.000000,51.000000 
	C19.611002,51.000000 18.222006,51.000000 16.409674,50.592609 
	C12.643236,36.754326 9.300134,23.323431 5.977470,9.558855 
	C7.007160,8.201593 8.016411,7.178016 9.097865,6.514450 
	C9.814242,8.929358 10.458416,10.984255 10.937817,13.355165 
	C7.076034,15.556084 9.696291,17.133945 11.285472,18.897503 
	C12.112446,19.549416 12.675047,20.078594 13.420990,20.831293 
	C14.108974,22.356216 14.613615,23.657621 14.880987,25.249886 
	C14.538667,26.816032 14.056789,28.200665 14.389953,29.348793 
	C16.492670,36.595062 18.776188,43.788868 21.000000,51.000000 
z"/>
<path fill="#00A6FF" opacity="1.000000" stroke="none" 
	d="
M5.957030,9.892538 
	C9.300134,23.323431 12.643236,36.754326 15.993170,50.592609 
	C15.555555,51.000000 15.111111,51.000000 14.664070,50.758675 
	C13.070328,49.360298 11.479182,48.203247 10.113894,46.767681 
	C7.536349,35.947227 4.732950,25.405291 2.077979,14.552590 
	C3.469949,12.792066 4.713490,11.342301 5.957030,9.892538 
z"/>
<path fill="#0013FF" opacity="1.000000" stroke="none" 
	d="
M51.000000,14.000001 
	C51.000000,20.354399 51.000000,26.708796 50.706047,33.341606 
	C49.502644,31.912874 48.465446,30.260015 47.711899,28.486628 
	C46.383789,25.361073 45.228798,22.161957 43.864544,18.799015 
	C43.522121,18.358135 43.280838,18.154020 42.997826,17.717037 
	C42.979954,17.259026 42.968147,17.076023 42.979385,16.604053 
	C42.600674,15.723543 42.198910,15.131996 41.765251,14.407587 
	C41.733356,14.274724 41.468765,14.206373 41.364716,14.029608 
	C41.066406,13.641639 40.964996,13.392622 41.102623,12.772021 
	C41.817142,10.348904 42.385479,8.259556 43.295322,6.193000 
	C44.866486,7.728316 46.020744,9.311354 47.349068,10.731598 
	C48.460419,11.919856 49.775265,12.917789 51.000000,14.000001 
z"/>
<path fill="#018DFF" opacity="1.000000" stroke="none" 
	d="
M21.375000,51.000000 
	C18.776188,43.788868 16.492670,36.595062 14.389953,29.348793 
	C14.056789,28.200665 14.538667,26.816032 15.184792,25.380352 
	C17.150820,26.200947 18.575773,27.181936 20.003864,28.479311 
	C20.014330,29.217505 20.021662,29.639313 19.912903,30.376556 
	C19.971436,32.008934 20.146059,33.325878 20.494461,34.904694 
	C20.743313,35.784485 20.818388,36.402405 20.752823,37.236244 
	C21.741453,41.968109 22.870728,46.484055 24.000000,51.000000 
	C23.250000,51.000000 22.500000,51.000000 21.375000,51.000000 
z"/>
<path fill="#00B4FF" opacity="1.000000" stroke="none" 
	d="
M1.929550,14.863352 
	C4.732950,25.405291 7.536349,35.947227 9.765261,46.745155 
	C7.755115,45.348274 6.319457,43.695400 5.191672,42.020370 
	C5.909834,41.214310 6.794177,40.332302 6.655454,39.662025 
	C5.539948,34.272156 4.299567,28.904772 2.932550,23.572767 
	C2.606323,22.300327 1.660724,21.186682 1.000000,20.000000 
	C1.000000,18.933331 1.000000,17.866661 1.168078,16.238655 
	C1.550153,15.450560 1.725024,15.196837 1.872070,14.895491 
	C1.883373,14.874828 1.929550,14.863352 1.929550,14.863352 
z"/>
<path fill="#000000" opacity="1.000000" stroke="none" 
	d="
M5.977470,9.558855 
	C4.713490,11.342301 3.469949,12.792066 2.077979,14.552590 
	C1.929550,14.863352 1.883373,14.874828 1.657596,14.917403 
	C1.431820,14.959978 1.000000,15.000000 1.000000,15.000000 
	C1.000000,10.413164 1.000000,5.826328 1.000000,1.000000 
	C5.013611,1.000000 9.030144,1.000000 13.851837,1.238485 
	C14.105989,2.039113 13.554980,2.601257 12.665312,3.189164 
	C11.226321,4.194765 10.125992,5.174602 9.025661,6.154439 
	C8.016411,7.178016 7.007160,8.201593 5.977470,9.558855 
z"/>
<path fill="#000000" opacity="1.000000" stroke="none" 
	d="
M51.000000,13.523339 
	C49.775265,12.917789 48.460419,11.919856 47.349068,10.731598 
	C46.020744,9.311354 44.866486,7.728316 42.986305,6.025867 
	C40.890514,4.223961 39.445259,2.611981 38.000000,1.000000 
	C42.256298,1.000000 46.512596,1.000000 51.000000,1.000000 
	C51.000000,5.013751 51.000000,9.030214 51.000000,13.523339 
z"/>
<path fill="#0168FF" opacity="1.000000" stroke="none" 
	d="
M35.000000,51.000000 
	C33.611004,51.000000 32.222004,51.000000 30.347992,50.637085 
	C27.908045,45.513908 25.953114,40.753639 24.130465,35.805710 
	C24.453857,35.377388 24.669212,35.160843 25.043999,35.024368 
	C25.179186,35.080322 25.444553,35.203632 25.635111,35.420624 
	C27.206175,36.085049 28.586679,36.532482 30.272545,36.979782 
	C30.982433,36.949970 31.386965,36.920296 31.872231,37.223015 
	C32.968643,42.036942 33.984322,46.518471 35.000000,51.000000 
z"/>
<path fill="#000000" opacity="1.000000" stroke="none" 
	d="
M51.000000,38.000000 
	C51.000000,42.256298 51.000000,46.512596 51.000000,51.000000 
	C46.986248,51.000000 42.969788,51.000000 38.136864,50.776230 
	C37.564835,50.071297 37.809265,49.590130 38.394203,49.058380 
	C40.171116,48.042789 41.607525,47.077785 43.329308,45.990494 
	C44.426674,44.947796 45.238659,44.027382 46.363350,42.961563 
	C47.488430,41.225105 48.300797,39.634056 49.481358,37.879128 
	C50.233036,37.810165 50.616516,37.905083 51.000000,38.000000 
z"/>
<path fill="#000000" opacity="1.000000" stroke="none" 
	d="
M4.883799,42.042530 
	C6.319457,43.695400 7.755115,45.348274 9.539405,47.023670 
	C11.479182,48.203247 13.070328,49.360298 14.330736,50.758675 
	C9.747736,51.000000 5.495471,51.000000 1.000000,51.000000 
	C1.000000,47.321571 1.000000,43.639961 1.221190,39.150726 
	C2.589520,39.576241 3.736659,40.809387 4.883799,42.042530 
z"/>
<path fill="#017BFF" opacity="1.000000" stroke="none" 
	d="
M23.998182,35.993374 
	C25.953114,40.753639 27.908045,45.513908 29.931488,50.637085 
	C28.285643,51.000000 26.571283,51.000000 24.428463,51.000000 
	C22.870728,46.484055 21.741453,41.968109 21.094675,37.173893 
	C21.828976,36.295437 22.080782,35.695251 22.501802,35.158890 
	C22.671019,35.222717 23.006651,35.360283 23.159039,35.485134 
	C23.524258,35.766602 23.753176,35.894398 23.998182,35.993374 
z"/>
<path fill="#0122FF" opacity="1.000000" stroke="none" 
	d="
M51.000000,37.600006 
	C50.616516,37.905083 50.233036,37.810165 49.139168,37.771095 
	C46.270824,31.537743 44.112873,25.248545 41.976753,18.978951 
	C41.998592,18.998550 41.960396,18.954002 42.300331,18.966663 
	C43.093952,18.984095 43.547642,18.988867 44.001331,18.993637 
	C45.228798,22.161957 46.383789,25.361073 47.711899,28.486628 
	C48.465446,30.260015 49.502644,31.912874 50.706047,33.810005 
	C51.000000,35.066669 51.000000,36.133339 51.000000,37.600006 
z"/>
<path fill="#00BFFF" opacity="1.000000" stroke="none" 
	d="
M5.191672,42.020370 
	C3.736659,40.809387 2.589520,39.576241 1.221190,38.671547 
	C1.000000,32.978848 1.000000,26.957697 1.000000,20.468273 
	C1.660724,21.186682 2.606323,22.300327 2.932550,23.572767 
	C4.299567,28.904772 5.539948,34.272156 6.655454,39.662025 
	C6.794177,40.332302 5.909834,41.214310 5.191672,42.020370 
z"/>
<path fill="#0074FF" opacity="1.000000" stroke="none" 
	d="
M13.003971,3.163401 
	C13.554980,2.601257 14.105989,2.039113 14.328499,1.238485 
	C15.066669,1.000000 16.133339,1.000000 17.673470,1.385957 
	C18.761320,5.461226 19.375706,9.150536 19.579636,12.910218 
	C17.782619,12.930792 16.396063,12.880994 15.006123,12.435877 
	C14.336484,9.081506 13.670228,6.122453 13.003971,3.163401 
z"/>
<path fill="#0156FF" opacity="1.000000" stroke="none" 
	d="
M38.053699,49.108963 
	C37.809265,49.590130 37.564835,50.071297 37.660202,50.776230 
	C37.250000,51.000000 36.500000,51.000000 35.375000,51.000000 
	C33.984322,46.518471 32.968643,42.036942 31.939804,36.885937 
	C32.043659,35.535118 32.160671,34.853775 32.551537,34.321030 
	C34.568157,39.349407 36.310928,44.229187 38.053699,49.108963 
z"/>
<path fill="#0025FF" opacity="1.000000" stroke="none" 
	d="
M37.666668,1.000000 
	C39.445259,2.611981 40.890514,4.223961 42.644791,6.003075 
	C42.385479,8.259556 41.817142,10.348904 40.708618,12.725216 
	C39.114704,12.951978 38.060982,12.891775 37.006226,12.395023 
	C36.670132,8.305650 36.335064,4.652825 36.000000,1.000000 
	C36.444447,1.000000 36.888889,1.000000 37.666668,1.000000 
z"/>
<path fill="#0034FF" opacity="1.000000" stroke="none" 
	d="
M35.600002,1.000000 
	C36.335064,4.652825 36.670132,8.305650 36.634483,12.469780 
	C35.510071,12.932055 34.756371,12.883025 34.000404,12.430230 
	C33.332092,8.350977 32.666046,4.675488 32.000000,1.000000 
	C33.066669,1.000000 34.133339,1.000000 35.600002,1.000000 
z"/>
<path fill="#0064FF" opacity="1.000000" stroke="none" 
	d="
M19.990093,12.839847 
	C19.375706,9.150536 18.761320,5.461226 18.073467,1.385957 
	C19.066669,1.000000 20.133339,1.000000 21.600288,1.431019 
	C22.332130,5.521535 22.663692,9.181032 22.623280,12.910308 
	C21.497568,12.933340 20.743830,12.886593 19.990093,12.839847 
z"/>
<path fill="#0054FF" opacity="1.000000" stroke="none" 
	d="
M24.000000,1.000000 
	C24.750000,1.000000 25.500000,1.000000 26.625992,1.409710 
	C27.664661,5.210968 28.327341,8.602516 28.655901,11.994694 
	C27.876183,11.994431 27.430582,11.993541 26.734077,11.734144 
	C25.655447,7.983759 24.827724,4.491879 24.000000,1.000000 
z"/>
<path fill="#0044FF" opacity="1.000000" stroke="none" 
	d="
M28.990021,11.994063 
	C28.327341,8.602516 27.664661,5.210968 27.000992,1.409710 
	C27.750000,1.000000 28.500000,1.000000 29.631884,1.408675 
	C30.406271,4.181905 31.064365,6.546063 31.067886,8.911197 
	C31.069412,9.937785 29.723774,10.966380 28.990021,11.994063 
z"/>
<path fill="#003FFF" opacity="1.000000" stroke="none" 
	d="
M28.655901,11.994694 
	C29.723774,10.966380 31.069412,9.937785 31.067886,8.911197 
	C31.064365,6.546063 30.406271,4.181905 30.006884,1.408675 
	C30.444445,1.000000 30.888889,1.000000 31.666668,1.000000 
	C32.666046,4.675488 33.332092,8.350977 33.567501,12.503614 
	C31.088797,12.933376 29.040731,12.885990 26.990187,12.627121 
	C26.987709,12.415637 26.984983,11.992650 26.984983,11.992650 
	C27.430582,11.993541 27.876183,11.994431 28.655901,11.994694 
z"/>
<path fill="#005BFF" opacity="1.000000" stroke="none" 
	d="
M26.734077,11.734144 
	C26.984983,11.992650 26.987709,12.415637 26.595362,12.701366 
	C25.133760,12.938240 24.064508,12.889384 22.995255,12.840528 
	C22.663692,9.181032 22.332130,5.521535 22.000284,1.431019 
	C22.444445,1.000000 22.888889,1.000000 23.666668,1.000000 
	C24.827724,4.491879 25.655447,7.983759 26.734077,11.734144 
z"/>
<path fill="#00A6FF" opacity="1.000000" stroke="none" 
	d="
M1.000000,15.250000 
	C1.000000,15.000000 1.431820,14.959978 1.646293,14.938065 
	C1.725024,15.196837 1.550153,15.450560 1.168078,15.838658 
	C1.000000,16.000000 1.000000,15.500000 1.000000,15.250000 
z"/>
<path fill="#FDFDFE" opacity="1.000000" stroke="none" 
	d="
M20.000727,28.162926 
	C18.575773,27.181936 17.150820,26.200947 15.422061,25.089493 
	C14.613615,23.657621 14.108974,22.356216 13.615257,20.683964 
	C13.626182,20.313116 14.000000,20.000000 14.371321,20.070126 
	C17.157867,20.760015 19.573093,21.379780 21.997211,22.248571 
	C22.175629,22.898350 22.345156,23.299097 22.514683,23.699846 
	C22.677217,23.130442 22.839752,22.561037 23.175852,21.829567 
	C23.899958,21.779047 24.450497,21.890593 24.965698,22.302246 
	C25.289839,23.339375 25.649321,24.076389 26.008802,24.813406 
	C26.671722,23.875809 27.334641,22.938210 28.245739,22.000774 
	C28.493919,22.000938 28.990278,22.001369 29.003120,22.284945 
	C29.324709,23.008884 29.633451,23.449249 29.942194,23.889614 
	C30.295052,22.926247 30.647907,21.962879 31.000381,20.999756 
	C31.000000,21.000000 30.999586,21.000763 31.379749,21.000065 
	C33.174702,20.666550 34.589485,20.333735 36.313229,19.990414 
	C37.031624,19.945581 37.441063,19.911255 37.910316,19.928198 
	C37.970131,19.979467 38.089382,20.082449 38.055294,20.397640 
	C38.006767,21.135290 37.992329,21.557747 37.712265,22.132854 
	C36.945827,23.154795 36.445011,24.024086 35.647057,25.018593 
	C34.228172,26.108213 33.106426,27.072624 31.735859,27.831499 
	C28.997149,28.137699 26.507263,28.649431 23.690636,29.003191 
	C22.242840,28.617788 21.121782,28.390358 20.000727,28.162926 
z"/>
<path fill="#FDFDFE" opacity="1.000000" stroke="none" 
	d="
M13.431914,20.460445 
	C12.675047,20.078594 12.112446,19.549416 11.299068,18.504532 
	C11.204300,14.324371 13.985938,15.091449 16.179976,15.013530 
	C24.608496,14.714200 33.039001,14.470698 41.468765,14.206373 
	C41.468765,14.206373 41.733356,14.274724 41.597553,14.810197 
	C41.304615,16.493265 41.147484,17.640862 40.671696,18.864946 
	C39.598484,19.321772 38.843933,19.702110 38.089382,20.082447 
	C38.089382,20.082449 37.970131,19.979467 37.859138,19.646137 
	C37.164165,18.875805 36.580193,18.438803 35.580116,18.002169 
	C33.777378,18.002455 32.390739,18.002371 30.536268,18.001688 
	C26.243803,18.001488 22.405161,17.812357 18.601265,18.093435 
	C17.029135,18.209606 15.531510,19.334097 14.000000,20.000000 
	C14.000000,20.000000 13.626182,20.313116 13.431914,20.460445 
z"/>
<path fill="#F1F4FE" opacity="1.000000" stroke="none" 
	d="
M41.364716,14.029608 
	C33.039001,14.470698 24.608496,14.714200 16.179976,15.013530 
	C13.985938,15.091449 11.204300,14.324371 11.034695,18.381802 
	C9.696291,17.133945 7.076034,15.556084 11.329116,13.334274 
	C12.926627,12.941979 13.968066,12.886587 15.009506,12.831196 
	C16.396063,12.880994 17.782619,12.930792 19.579636,12.910218 
	C20.743830,12.886593 21.497568,12.933340 22.623280,12.910308 
	C24.064508,12.889384 25.133760,12.938240 26.597839,12.912850 
	C29.040731,12.885990 31.088797,12.933376 33.569767,12.907379 
	C34.756371,12.883025 35.510071,12.932055 36.635513,12.906330 
	C38.060982,12.891775 39.114704,12.951978 40.562431,13.058986 
	C40.964996,13.392622 41.066406,13.641639 41.364716,14.029608 
z"/>
<path fill="#0085FF" opacity="1.000000" stroke="none" 
	d="
M15.006123,12.435877 
	C13.968066,12.886587 12.926627,12.941979 11.493889,13.018262 
	C10.458416,10.984255 9.814242,8.929358 9.097865,6.514450 
	C10.125992,5.174602 11.226321,4.194765 12.665312,3.189164 
	C13.670228,6.122453 14.336484,9.081506 15.006123,12.435877 
z"/>
<path fill="#F1F4FE" opacity="1.000000" stroke="none" 
	d="
M40.990349,18.788458 
	C41.147484,17.640862 41.304615,16.493265 41.629448,14.943060 
	C42.198910,15.131996 42.600674,15.723543 42.721046,16.691578 
	C42.347500,17.378254 42.255348,17.688440 42.092346,18.233192 
	C42.021500,18.467762 41.960396,18.954002 41.960396,18.954002 
	C41.960396,18.954002 41.998592,18.998550 41.727295,18.983713 
	C41.456001,18.968876 40.990349,18.788458 40.990349,18.788458 
z"/>
<path fill="#012DFF" opacity="1.000000" stroke="none" 
	d="
M42.300331,18.966663 
	C41.960396,18.954002 42.021500,18.467762 42.302315,18.233236 
	C42.583126,17.998711 43.003899,17.992046 43.003899,17.992046 
	C43.280838,18.154020 43.522121,18.358135 43.864544,18.799015 
	C43.547642,18.988867 43.093952,18.984095 42.300331,18.966663 
z"/>
<path fill="#0122FF" opacity="1.000000" stroke="none" 
	d="
M42.997826,17.717037 
	C43.003899,17.992046 42.583126,17.998711 42.373161,17.998669 
	C42.255348,17.688440 42.347500,17.378254 42.697994,16.980543 
	C42.968147,17.076023 42.979954,17.259026 42.997826,17.717037 
z"/>
<path fill="#0271FF" opacity="1.000000" stroke="none" 
	d="
M20.003864,28.479313 
	C21.121782,28.390358 22.242840,28.617788 23.645290,29.260765 
	C23.658655,30.112728 23.390627,30.549143 22.774086,30.991146 
	C21.963865,30.995659 21.502159,30.994583 20.984392,30.733084 
	C20.628551,30.335480 20.328770,30.198301 20.028992,30.061121 
	C20.021662,29.639313 20.014330,29.217505 20.003864,28.479313 
z"/>
<path fill="#D4E0FE" opacity="1.000000" stroke="none" 
	d="
M19.912901,30.376556 
	C20.328770,30.198301 20.628551,30.335480 20.890194,30.836126 
	C20.852057,31.199593 20.935156,31.466244 20.717487,31.651066 
	C20.645451,32.268894 20.791079,32.701897 20.969299,33.090511 
	C21.001892,33.046124 20.912956,32.981155 20.944292,33.222816 
	C20.975628,33.464478 21.056488,33.945091 20.867683,34.114403 
	C20.559479,34.403423 20.440081,34.523125 20.320684,34.642822 
	C20.146059,33.325878 19.971436,32.008934 19.912901,30.376556 
z"/>
<path fill="#D4E0FE" opacity="1.000000" stroke="none" 
	d="
M22.332586,35.095066 
	C22.080782,35.695251 21.828976,36.295437 21.235317,36.957977 
	C20.818388,36.402405 20.743313,35.784485 20.494461,34.904694 
	C20.440081,34.523125 20.559479,34.403423 21.101456,34.173428 
	C21.524031,34.063137 21.962759,34.263256 21.998226,34.496544 
	C22.033695,34.729836 22.332586,35.095066 22.332586,35.095066 
z"/>
<path fill="#0254FF" opacity="1.000000" stroke="none" 
	d="
M23.122601,30.985558 
	C23.390627,30.549143 23.658655,30.112728 23.972031,29.418739 
	C26.507263,28.649431 28.997149,28.137699 31.665071,28.101793 
	C28.890865,30.683126 32.580410,32.272728 32.277687,34.172432 
	C32.160671,34.853775 32.043659,35.535118 31.859070,36.553543 
	C31.386965,36.920296 30.982433,36.949970 30.086802,36.704140 
	C28.211987,36.020298 26.828270,35.611965 25.444553,35.203632 
	C25.444553,35.203632 25.179186,35.080322 24.870968,34.815216 
	C24.069525,34.347607 23.576298,34.145100 23.062344,33.573895 
	C23.068611,32.465317 23.095606,31.725437 23.122601,30.985558 
z"/>
<path fill="#003AFF" opacity="1.000000" stroke="none" 
	d="
M25.635111,35.420624 
	C26.828270,35.611965 28.211987,36.020298 29.781445,36.704277 
	C28.586679,36.532482 27.206175,36.085049 25.635111,35.420624 
z"/>
<path fill="#0669FF" opacity="1.000000" stroke="none" 
	d="
M23.083071,33.942593 
	C23.576298,34.145100 24.069525,34.347607 24.735783,34.759262 
	C24.669212,35.160843 24.453857,35.377388 24.130465,35.805710 
	C23.753176,35.894398 23.524258,35.766602 23.171791,35.127571 
	C23.049128,34.410973 23.066099,34.176785 23.083071,33.942593 
z"/>
<path fill="#0047FF" opacity="1.000000" stroke="none" 
	d="
M32.551537,34.321030 
	C32.580410,32.272728 28.890865,30.683126 31.913897,28.307327 
	C33.106426,27.072624 34.228172,26.108213 35.802708,25.363180 
	C38.518311,32.425964 40.781124,39.269375 43.043930,46.112785 
	C41.607525,47.077785 40.171116,48.042789 38.394203,49.058380 
	C36.310928,44.229187 34.568157,39.349407 32.551537,34.321030 
z"/>
<path fill="#012DFF" opacity="1.000000" stroke="none" 
	d="
M40.671692,18.864946 
	C40.990349,18.788458 41.456001,18.968876 41.705460,18.964111 
	C44.112873,25.248545 46.270824,31.537743 48.770973,37.934975 
	C48.300797,39.634056 47.488430,41.225105 46.182999,42.649899 
	C44.708302,40.271038 43.600723,38.104477 42.771496,35.836166 
	C41.093735,31.246717 39.566936,26.602085 37.977890,21.980206 
	C37.992329,21.557747 38.006767,21.135290 38.055294,20.397640 
	C38.843933,19.702110 39.598484,19.321772 40.671692,18.864946 
z"/>
<path fill="#0039FF" opacity="1.000000" stroke="none" 
	d="
M37.712265,22.132854 
	C39.566936,26.602085 41.093735,31.246717 42.771496,35.836166 
	C43.600723,38.104477 44.708302,40.271038 45.870289,42.795303 
	C45.238659,44.027382 44.426674,44.947796 43.329311,45.990498 
	C40.781124,39.269375 38.518311,32.425964 36.099850,25.237968 
	C36.445011,24.024086 36.945827,23.154795 37.712265,22.132854 
z"/>
<path fill="#2F80FF" opacity="1.000000" stroke="none" 
	d="
M23.062344,33.573895 
	C23.066099,34.176785 23.049128,34.410973 23.019403,35.002720 
	C23.006651,35.360283 22.671019,35.222717 22.501802,35.158890 
	C22.332586,35.095066 22.033695,34.729836 21.844749,34.264656 
	C21.408188,33.526703 21.160572,33.253929 20.912956,32.981155 
	C20.912956,32.981155 21.001892,33.046124 20.977272,32.672966 
	C20.946819,32.021954 20.940987,31.744099 20.935156,31.466244 
	C20.935156,31.466244 20.852057,31.199593 20.946255,31.096550 
	C21.502159,30.994583 21.963865,30.995659 22.774086,30.991146 
	C23.095606,31.725437 23.068611,32.465317 23.062344,33.573895 
z"/>
<path fill="#FCFCFE" opacity="1.000000" stroke="none" 
	d="
M14.371321,20.070126 
	C15.531510,19.334097 17.029135,18.209606 18.601265,18.093435 
	C22.405161,17.812357 26.243803,18.001488 30.534962,18.376436 
	C31.000853,19.501444 31.000219,20.251104 30.999586,21.000763 
	C30.999586,21.000763 31.000000,21.000000 30.717548,21.053936 
	C29.953491,21.405706 29.471884,21.703537 28.990278,22.001369 
	C28.990278,22.001369 28.493919,22.000938 27.871216,22.000637 
	C26.499353,22.000937 25.750195,22.001537 25.001038,22.002136 
	C24.450497,21.890593 23.899958,21.779047 22.922344,21.831169 
	C22.326288,21.996401 22.157305,21.997971 21.988321,21.999542 
	C19.573093,21.379780 17.157867,20.760015 14.371321,20.070126 
z"/>
<path fill="#F5F6FE" opacity="1.000000" stroke="none" 
	d="
M31.379749,21.000065 
	C31.000219,20.251104 31.000853,19.501444 31.002792,18.377037 
	C32.390739,18.002371 33.777378,18.002455 35.581581,18.335327 
	C36.000854,19.112387 36.002563,19.556652 36.004272,20.000919 
	C34.589485,20.333735 33.174702,20.666550 31.379749,21.000065 
z"/>
<path fill="#F5F6FE" opacity="1.000000" stroke="none" 
	d="
M24.965698,22.302246 
	C25.750195,22.001537 26.499353,22.000937 27.623035,22.000473 
	C27.334641,22.938210 26.671722,23.875809 26.008802,24.813406 
	C25.649321,24.076389 25.289839,23.339375 24.965698,22.302246 
z"/>
<path fill="#F5F6FE" opacity="1.000000" stroke="none" 
	d="
M29.003120,22.284945 
	C29.471884,21.703537 29.953491,21.405706 30.717930,21.053692 
	C30.647907,21.962879 30.295052,22.926247 29.942194,23.889614 
	C29.633451,23.449249 29.324709,23.008884 29.003120,22.284945 
z"/>
<path fill="#FCFCFE" opacity="1.000000" stroke="none" 
	d="
M36.313229,19.990414 
	C36.002563,19.556652 36.000854,19.112387 35.997681,18.334961 
	C36.580193,18.438803 37.164165,18.875805 37.799324,19.594868 
	C37.441063,19.911255 37.031624,19.945581 36.313229,19.990414 
z"/>
<path fill="#F5F6FE" opacity="1.000000" stroke="none" 
	d="
M21.997211,22.248571 
	C22.157305,21.997971 22.326288,21.996401 22.748779,21.993233 
	C22.839752,22.561037 22.677217,23.130442 22.514683,23.699846 
	C22.345156,23.299097 22.175629,22.898350 21.997211,22.248571 
z"/>
<path fill="#0271FF" opacity="1.000000" stroke="none" 
	d="
M20.717487,31.651066 
	C20.940987,31.744099 20.946819,32.021954 20.944679,32.717354 
	C20.791079,32.701897 20.645451,32.268894 20.717487,31.651066 
z"/>
<path fill="#0271FF" opacity="1.000000" stroke="none" 
	d="
M20.944292,33.222816 
	C21.160572,33.253929 21.408188,33.526703 21.809280,34.031364 
	C21.962759,34.263256 21.524031,34.063137 21.290260,34.004112 
	C21.056488,33.945091 20.975628,33.464478 20.944292,33.222816 
z"/>
</svg>